<svg xmlns="http://www.w3.org/2000/svg" xmlns:xlink="http://www.w3.org/1999/xlink" xmlns:inkscape="http://www.inkscape.org/namespaces/inkscape" version="1.1" width="420" height="594.95999" viewBox="0 0 420 594.95999">
<defs>
<clipPath id="clip_1">
<path transform="matrix(.24,0,0,.24,0,0)" d="M0 0H1748.0469V2480H0Z" clip-rule="evenodd"/>
</clipPath>
<clipPath id="clip_2">
<path transform="matrix(.24,0,0,.24,0,0)" d="M0 0H1746.875V2480H0Z" clip-rule="evenodd"/>
</clipPath>
<clipPath id="clip_3">
<path transform="matrix(.24,0,0,.24,0,0)" d="M0 0H1746.875V2480H0Z" clip-rule="evenodd"/>
</clipPath>
<g id="font_4_42">
<path transform="matrix(.001,0,0,-.001,0,0)" d="M66 0V-745H352C403.33335-745 448.83335-736 488.5-718 528.1667-700 559.3333-673.3333 582-638 604.6667-602.6667 616-559 616-507 616-456.33335 604.5-413.33335 581.5-378 558.5-342.66667 527.1667-315.83335 487.5-297.5 447.83335-279.16667 402.66667-270 352-270H221V0H66ZM221-405H353C375-405 394-409.33335 410-418 426-426.66667 438.5-438.66667 447.5-454 456.5-469.33335 461-487 461-507 461-527.6667 456.5-545.6667 447.5-561 438.5-576.3333 426-588.3333 410-597 394-605.6667 375-610 353-610H221V-405Z"/>
</g>
<g id="font_4_59">
<path transform="matrix(.001,0,0,-.001,0,0)" d="M224 12C184.66666 12 150.66667 5.666667 122-7 93.33333-19.666668 71.333339-37.833333 56-61.5 40.666666-85.16667 33-113.33333 33-146 33-176.66667 40-203.83333 54-227.5 68-251.16667 89.5-271 118.5-287 147.5-303 183.66666-314.33335 227-321L394-348V-238L254-213C232.66667-209 216.33333-202.16667 205-192.5 193.66667-182.83333 188-169 188-151 188-134.33333 194.33333-121.333339 207-112 219.66667-102.666667 235.33333-98 254-98 278.66667-98 300.33335-103.333339 319-114 337.66667-124.666667 352.16667-139.16667 362.5-157.5 372.83335-175.83333 378-196 378-218V-360C378-380.66667 369.83335-398 353.5-412 337.16667-426 315-433 287-433 260.33335-433 236.83333-425.66667 216.5-411 196.16667-396.33335 181.33333-377 172-353L52-410C62.666669-440.66667 79.666667-467 103-489 126.333339-511 154.33333-528 187-540 219.66667-552 255.33333-558 294-558 340-558 380.66667-549.6667 416-533 451.33335-516.3333 478.83335-493.16667 498.5-463.5 518.1667-433.83335 528-399.33335 528-360V0H388V-88L422-94C406-70 388.33335-50.166669 369-34.5 349.66667-18.833333 328-7.166667 304 .5 280 8.166667 253.33333 12 224 12Z"/>
</g>
<g id="font_4_108">
<path transform="matrix(.001,0,0,-.001,0,0)" d="M318 6C252 6 200.83335-11.833332 164.5-47.5 128.16666-83.16667 110-133 110-197V-416H18V-546H23C51-546 72.5-553 87.5-567 102.5-581 110-602 110-630V-670H260V-546H388V-416H260V-207C260-188.33333 263.33335-172.83333 270-160.5 276.66667-148.16667 287-139 301-133 315-127 332.33335-124 353-124 357.66667-124 363-124.333339 369-125 375-125.666667 381.33335-126.333339 388-127V0C378 1.3333334 366.66667 2.6666666 354 4 341.33335 5.3333337 329.33335 6 318 6Z"/>
</g>
<g id="font_4_80">
<path transform="matrix(.001,0,0,-.001,0,0)" d="M55 0V-546H205V0H55ZM55-595V-745H205V-595H55Z"/>
</g>
<g id="font_4_72">
<path transform="matrix(.001,0,0,-.001,0,0)" d="M318 12C260 12 209.66667-.83333209 167-26.5 124.33333-52.166669 91.333339-86.666667 68-130 44.666666-173.33335 33-221.33333 33-274 33-328.66667 45.166666-377.33335 69.5-420 93.833339-462.66667 126.666667-496.33335 168-521 209.33335-545.6667 256-558 308-558 351.33335-558 389.66667-551.1667 423-537.5 456.33335-523.8333 484.5-504.66667 507.5-480 530.5-455.33335 548-426.83335 560-394.5 572-362.16667 578-327 578-289 578-278.33335 577.5-267.83335 576.5-257.5 575.5-247.16667 573.6667-238.33333 571-231H162V-341H486L415-289C421.66667-317.66667 421.33335-343.16667 414-365.5 406.66667-387.83335 393.83335-405.5 375.5-418.5 357.16667-431.5 334.66667-438 308-438 282-438 259.66667-431.66667 241-419 222.33333-406.33335 208.33333-387.66667 199-363 189.66667-338.33335 186-308.33335 188-273 185.33333-242.33333 189-215.33333 199-192 209-168.66667 224.33333-150.5 245-137.5 265.66667-124.5 290.66667-118 320-118 346.66667-118 369.5-123.333339 388.5-134 407.5-144.66667 422.33335-159.33333 433-178L553-121C542.3333-94.33333 525.5-71 502.5-51 479.5-31 452.33335-15.5 421-4.5 389.66667 6.5 355.33335 12 318 12Z"/>
</g>
<g id="font_4_92">
<path transform="matrix(.001,0,0,-.001,0,0)" d="M55 0V-546H195V-438L187-462C199.66667-494.66667 220.16667-518.8333 248.5-534.5 276.83335-550.1667 310-558 348-558 389.33335-558 425.5-549.3333 456.5-532 487.5-514.6667 511.66667-490.5 529-459.5 546.3333-428.5 555-392.23439 555-350.70314V0H405V-319C405-340.33335 400.83335-358.66667 392.5-374 384.16667-389.33335 372.46876-401.33335 357.40626-410 342.34376-418.66667 325.0104-423 305.40626-423 285.8021-423 268.33335-418.66667 253-410 237.66667-401.33335 225.83333-389.33335 217.5-374 209.16667-358.66667 205-340.33335 205-319V0H55Z"/>
</g>
<g id="font_4_178">
</g>
<g id="font_4_91">
<path transform="matrix(.001,0,0,-.001,0,0)" d="M55 0V-546H195V-413L180-435C188-477 207.33333-508 238-528 268.66667-548 305.33335-558 348-558 393.33335-558 433.16667-546.5 467.5-523.5 501.83335-500.5 523.3333-469.66667 532-431L489-427C507-471.66667 532.6667-504.66667 566-526 599.3333-547.3333 638.3333-558 683-558 722.3333-558 757.1667-549.3333 787.5-532 817.8333-514.6667 841.6667-490.5 859-459.5 876.3333-428.5 885-392.33335 885-351V0H735V-319C735-340.33335 731.1667-358.66667 723.5-374 715.8333-389.33335 705-401.33335 691-410 677-418.66667 660-423 640-423 620.6667-423 603.8333-418.66667 589.5-410 575.1667-401.33335 564.1667-389.33335 556.5-374 548.8333-358.66667 545-340.33335 545-319V0H395V-319C395-340.33335 391.16667-358.66667 383.5-374 375.83335-389.33335 365-401.33335 351-410 337-418.66667 320-423 300-423 280.66667-423 263.83335-418.66667 249.5-410 235.16667-401.33335 224.16667-389.33335 216.5-374 208.83333-358.66667 205-340.33335 205-319V0H55Z"/>
</g>
<g id="font_4_1">
<path transform="matrix(.001,0,0,-.001,0,0)" d="M11 0 263-745H469L721 0H552L502-152H229L179 0H11ZM272-287H459L345-639H387L272-287Z"/>
</g>
<g id="font_4_70">
<path transform="matrix(.001,0,0,-.001,0,0)" d="M312 12C258.66667 12 211-.66666606 169-26 127-51.333337 93.833339-85.666667 69.5-129 45.166666-172.33335 33-220.33333 33-273 33-326.33335 45.333333-374.5 70-417.5 94.66667-460.5 128-494.66667 170-520 212-545.3333 259-558 311-558 351-558 386.5-550.5 417.5-535.5 448.5-520.5 473-499.33335 491-472L468-442V-757H618V0H478V-100L492-69C473.33335-42.333333 448-22.166668 416-8.5 384 5.166667 349.33335 12 312 12ZM330-123C357.33335-123 381.33335-129.33333 402-142 422.66667-154.66667 438.83335-172.33333 450.5-195 462.16667-217.66667 468-243.66667 468-273 468-302.33335 462.16667-328.33335 450.5-351 438.83335-373.66667 422.66667-391.33335 402-404 381.33335-416.66667 357.33335-423 330-423 302.66667-423 278.16667-416.5 256.5-403.5 234.83333-390.5 218-372.83335 206-350.5 194-328.16667 188-302.33335 188-273 188-243.66667 194-217.66667 206-195 218-172.33333 234.83333-154.66667 256.5-142 278.16667-129.33333 302.66667-123 330-123Z"/>
</g>
<g id="font_4_105">
<path transform="matrix(.001,0,0,-.001,0,0)" d="M55 0V-546H195V-415L185-434C197-480 216.83333-511.16667 244.5-527.5 272.16667-543.8333 305-552 343-552H375V-422H328C291.33335-422 261.66667-410.83335 239-388.5 216.33333-366.16667 205-334.66667 205-294V0H55Z"/>
</g>
<g id="font_4_106">
<path transform="matrix(.001,0,0,-.001,0,0)" d="M269 12C209 12 156.83335-2.166666 112.5-30.5 68.166667-58.833337 38-97 22-145L132-197C146-167.66667 165-144.66667 189-128 213-111.33333 239.66667-103 269-103 290.33335-103 306.66667-107.333339 318-116 329.33335-124.666667 335-136.66667 335-152 335-160 333-166.83333 329-172.5 325-178.16667 319-183.33333 311-188 303-192.66667 293-196.66667 281-200L188-226C143.33333-238.66667 109-259.16667 85-287.5 61-315.83335 49-349.33335 49-388 49-422 57.666666-451.66667 75-477 92.333339-502.33335 116.666667-522.1667 148-536.5 179.33333-550.8333 215.33333-558 256-558 309.33335-558 356.16667-545.5 396.5-520.5 436.83335-495.5 465.33335-460.33335 482-415L371-363C363-385.66667 348.5-403.83335 327.5-417.5 306.5-431.16667 282.66667-438 256-438 236.66667-438 221.5-434 210.5-426 199.5-418 194-407 194-393 194-385.66667 196-379 200-373 204-367 210.5-361.66667 219.5-357 228.5-352.33335 239.66667-348 253-344L340-318C385.33335-304.66667 420-284.5 444-257.5 468-230.5 480-197.33335 480-158 480-124 471.16667-94.333339 453.5-69 435.83335-43.666666 411.33335-23.833334 380-9.5 348.66667 4.833334 311.66667 12 269 12Z"/>
</g>
<g id="font_5_46">
<path transform="matrix(.001,0,0,-.001,0,0)" d="M337.5 12C290.66667 12 247.04167 3.375 206.625-13.875 166.20833-31.125 131.54167-55.291666 102.625-86.375 73.70833-117.458339 52.333337-153.58333 38.5-194.75L151.75-244.25C170.08333-201.08333 196.20833-167.45833 230.125-143.375 264.04167-119.291667 302.33335-107.25 345-107.25 369-107.25 389.79167-111.041667 407.375-118.625 424.95835-126.208339 438.66667-136.70833 448.5-150.125 458.33335-163.54167 463.25-179.33333 463.25-197.5 463.25-219.66667 456.75-237.875 443.75-252.125 430.75-266.375 411.08335-277.58335 384.75-285.75L241.75-331.75C184.08333-350.08335 140.45833-377.125 110.875-412.875 81.291667-448.625 66.5-491 66.5-540 66.5-582.8333 77.041667-620.5417 98.125-653.125 119.208339-685.7083 148.58333-711.1667 186.25-729.5 223.91667-747.8333 267.08335-757 315.75-757 360.41667-757 401.45835-749.2083 438.875-733.625 476.29167-718.0417 508.45835-696.4167 535.375-668.75 562.2917-641.0833 582.3333-608.4167 595.5-570.75L483.5-521C469-558 447.04167-586.7083 417.625-607.125 388.20835-627.5417 354.33335-637.75 316-637.75 293.33335-637.75 273.29167-634 255.875-626.5 238.45833-619 225-608.2917 215.5-594.375 206-580.4583 201.25-564.3333 201.25-546 201.25-525.3333 207.91667-507.08335 221.25-491.25 234.58333-475.41667 254.75-463.25 281.75-454.75L418.5-411.5C478.16667-392.66667 522.875-366.16667 552.625-332 582.375-297.83335 597.25-255.83335 597.25-206 597.25-163.5 586.2083-125.833339 564.125-93 542.0417-60.166666 511.58335-34.458337 472.75-15.875 433.91667 2.708334 388.83335 12 337.5 12Z"/>
</g>
<g id="font_5_80">
<path transform="matrix(.001,0,0,-.001,0,0)" d="M60.5 0V-543.5H191.75V0H60.5ZM60.5-605V-745H191.75V-605H60.5Z"/>
</g>
<g id="font_5_78">
<path transform="matrix(.001,0,0,-.001,0,0)" d="M325 220C284.33335 220 246.625 213.33333 211.875 200 177.125 186.66667 147.33333 168.16667 122.5 144.5 97.666667 120.83333 79.5 93 68 61L189.5 15C197.66667 40.333337 213.66667 60.833333 237.5 76.5 261.33335 92.166667 290.33335 100 324.5 100 351.16667 100 374.66667 95.041667 395 85.125 415.33335 75.208339 431.20835 60.666669 442.625 41.5 454.04167 22.333333 459.75-.5 459.75-27V-150.5L484.5-120.75C465.83335-88.08333 440.91667-63.5 409.75-47 378.58335-30.5 342.83335-22.25 302.5-22.25 252-22.25 206.75-33.875 166.75-57.125 126.75-80.375 95.375-112.25 72.625-152.75 49.875-193.25 38.5-239 38.5-290 38.5-341.16667 49.875-386.70835 72.625-426.625 95.375-466.54167 126.45833-498 165.875-521 205.29167-544 250.08333-555.5 300.25-555.5 340.58335-555.5 376.20835-547.125 407.125-530.375 438.04167-513.625 463.83335-489 484.5-456.5L467.25-424.25V-543.5H591V-27C591 20.5 579.5417 62.916666 556.625 100.25 533.7083 137.58335 502.33335 166.875 462.5 188.125 422.66667 209.375 376.83335 220 325 220ZM319.25-143C346.91667-143 371.25-149.20833 392.25-161.625 413.25-174.04167 429.75-191.20833 441.75-213.125 453.75-235.04167 459.75-260.16667 459.75-288.5 459.75-316.83335 453.625-342.08335 441.375-364.25 429.125-386.41667 412.5-403.83335 391.5-416.5 370.5-429.16667 346.41667-435.5 319.25-435.5 291.41667-435.5 266.54167-429.16667 244.625-416.5 222.70833-403.83335 205.58333-386.45835 193.25-364.375 180.91667-342.29167 174.75-317 174.75-288.5 174.75-260.66667 180.91667-235.79167 193.25-213.875 205.58333-191.95833 222.66667-174.66667 244.5-162 266.33335-149.33333 291.25-143 319.25-143Z"/>
</g>
<g id="font_5_92">
<path transform="matrix(.001,0,0,-.001,0,0)" d="M60.5 0V-543.5H184.25V-436.5L174-455.5C186.83333-488.66667 207.66667-513.625 236.5-530.375 265.33335-547.125 299-555.5 337.5-555.5 378-555.5 413.66667-546.8333 444.5-529.5 475.33335-512.1667 499.45835-488.08335 516.875-457.25 534.2917-426.41667 543-390.67189 543-350.01564V0H411.75V-319C411.75-343.16667 407.16667-363.83335 398-381 388.83335-398.16667 375.97398-411.54167 359.42189-421.125 342.88023-430.70835 323.84376-435.5 302.3125-435.5 280.77085-435.5 261.58335-430.70835 244.75-421.125 227.91667-411.54167 214.875-398.125 205.625-380.875 196.375-363.625 191.75-343 191.75-319V0H60.5Z"/>
</g>
<g id="font_5_59">
<path transform="matrix(.001,0,0,-.001,0,0)" d="M226 12C188 12 154.91667 5.625 126.75-7.125 98.58333-19.875 76.833339-37.958333 61.5-61.375 46.166666-84.79167 38.5-112.416667 38.5-144.25 38.5-174.25 45.25-201 58.75-224.5 72.25-248 93.041667-267.75 121.125-283.75 149.20833-299.75 184.41666-311.08335 226.75-317.75L404.5-346.75V-247.25L251.5-220.5C225.83333-215.83333 206.625-207.625 193.875-195.875 181.125-184.125 174.75-168.41667 174.75-148.75 174.75-130.25 181.875-115.416667 196.125-104.25 210.375-93.083339 228.25-87.5 249.75-87.5 277.41667-87.5 301.66667-93.458339 322.5-105.375 343.33335-117.291667 359.54167-133.45833 371.125-153.875 382.70835-174.29167 388.5-196.83333 388.5-221.5V-362C388.5-385.5 379.45835-405 361.375-420.5 343.29167-436 319.08335-443.75 288.75-443.75 260.58335-443.75 235.79167-436.20835 214.375-421.125 192.95833-406.04167 177.25-386.25 167.25-361.75L60.25-413.75C70.75-442.41667 87.45833-467.33335 110.375-488.5 133.29167-509.66667 160.5-526.125 192-537.875 223.5-549.625 257.5-555.5 294-555.5 338.33335-555.5 377.54167-547.3333 411.625-531 445.70835-514.6667 472.25-492 491.25-463 510.25-434 519.75-400.33335 519.75-362V0H396V-92.75L424.25-94.5C409.91667-71.5 393.04167-52.083337 373.625-36.25 354.20835-20.416666 332.20835-8.416667 307.625-.25 283.04167 7.916667 255.83333 12 226 12Z"/>
</g>
<g id="font_5_108">
<path transform="matrix(.001,0,0,-.001,0,0)" d="M309 6C247.5 6 199.875-10.875 166.125-44.625 132.375-78.375 115.5-125.75 115.5-186.75V-427.25H21.75V-543.5H31.75C58.416669-543.5 79.041667-550.625 93.625-564.875 108.208339-579.125 115.5-599.5833 115.5-626.25V-667.5H246.75V-543.5H372.25V-427.25H246.75V-194.25C246.75-175.75 249.91667-160.16667 256.25-147.5 262.58335-134.83333 272.625-125.25 286.375-118.75 300.125-112.25 317.5-109 338.5-109 343.33335-109 348.91667-109.333339 355.25-110 361.58335-110.666667 367.91667-111.333339 374.25-112V0C364.75 1.5 354 2.875 342 4.125 330 5.375 319 6 309 6Z"/>
</g>
<g id="font_5_109">
<path transform="matrix(.001,0,0,-.001,0,0)" d="M255 12C212.66666 12 176.04167 2.666668 145.125-16 114.20833-34.666669 90.54167-60.708333 74.125-94.125 57.708333-127.54167 49.5-166.41666 49.5-210.75V-543.5H180.75V-222C180.75-199.33333 185.33333-179.41667 194.5-162.25 203.66667-145.08333 216.625-131.75 233.375-122.25 250.125-112.75 269.16667-108 290.5-108 312.33335-108 331.54167-112.791667 348.125-122.375 364.70835-131.95833 377.625-145.5 386.875-163 396.125-180.5 400.75-201 400.75-224.5V-543.5H532V0H408.25V-107L418.5-88C405.83335-54.833333 385.04167-29.875 356.125-13.125 327.20835 3.625 293.5 12 255 12Z"/>
</g>
<g id="font_5_105">
<path transform="matrix(.001,0,0,-.001,0,0)" d="M60.5 0V-543.5H184.25V-423.25L174.25-440.75C186.41667-481.58335 206.08333-509.95835 233.25-525.875 260.41667-541.7917 292.83335-549.75 330.5-549.75H363V-433.5H316C278.83335-433.5 248.83333-422.125 226-399.375 203.16667-376.625 191.75-344.5 191.75-303V0H60.5Z"/>
</g>
<g id="font_5_72">
<path transform="matrix(.001,0,0,-.001,0,0)" d="M318.75 12C262.75 12 213.70835-.66666606 171.625-26 129.54166-51.333337 96.833339-85.58333 73.5-128.75 50.166666-171.91667 38.5-220 38.5-273 38.5-327.5 50.458333-375.95835 74.375-418.375 98.29167-460.79167 130.625-494.25 171.375-518.75 212.125-543.25 258.08335-555.5 309.25-555.5 351.41667-555.5 388.79167-548.5833 421.375-534.75 453.95835-520.9167 481.54167-501.70835 504.125-477.125 526.7083-452.54167 543.9167-424.33335 555.75-392.5 567.5833-360.66667 573.5-326.5 573.5-290 573.5-280.33335 573.0417-270.58335 572.125-260.75 571.2083-250.91667 569.5833-242.16667 567.25-234.5H147.25V-334.5H492.75L430.5-288C437-318.66667 435.70835-346 426.625-370 417.54167-394 402.79167-413 382.375-427 361.95835-441 337.58335-448 309.25-448 281.41667-448 256.95835-441.08335 235.875-427.25 214.79167-413.41667 198.75-393.375 187.75-367.125 176.75-340.875 172.41667-309.16667 174.75-272 171.91667-238.33333 176.375-208.79167 188.125-183.375 199.875-157.95833 217.20833-138.20833 240.125-124.125 263.04167-110.041667 289.75-103 320.25-103 350.08335-103 375.45835-109.333339 396.375-122 417.29167-134.66667 433.83335-151.5 446-172.5L552-121.25C541.3333-95.25 524.625-72.208339 501.875-52.125 479.125-32.041666 452.20835-16.333334 421.125-5 390.04167 6.333334 355.91667 12 318.75 12Z"/>
</g>
<g id="font_5_178">
</g>
<g id="font_5_223">
<path transform="matrix(.001,0,0,-.001,0,0)" d="M307.5 12C261.5 12 221.20835 3.708334 186.625-12.875 152.04166-29.458334 125-53 105.5-83.5 86-114 76.25-149.41666 76.25-189.75 76.25-223.75 82.375-253.33333 94.625-278.5 106.875-303.66667 121.95833-325.04167 139.875-342.625 157.79167-360.20835 175.66667-374.70835 193.5-386.125 211.33333-397.54167 226.08333-406.5 237.75-413L303.25-448C324.41667-459.33335 343.79167-470.79167 361.375-482.375 378.95835-493.95835 393.16667-507 404-521.5 414.83335-536 420.25-552.6667 420.25-571.5 420.25-593.5 413.04167-612.0833 398.625-627.25 384.20835-642.4167 366-650 344-650 322.33335-650 304.08335-642.5417 289.25-627.625 274.41667-612.7083 267-593.6667 267-570.5 267-553.8333 270.875-537.5 278.625-521.5 286.375-505.5 295.58335-490.70835 306.25-477.125 316.91667-463.54167 327.08335-451.33335 336.75-440.5L731.75 0H574.5L242.25-364.5C226.75-381.66667 211.33333-400.04167 196-419.625 180.66667-439.20835 167.95833-460.91667 157.875-484.75 147.79167-508.58335 142.75-535.1667 142.75-564.5 142.75-603.6667 152-637.6667 170.5-666.5 189-695.3333 213.375-717.625 243.625-733.375 273.875-749.125 306.83335-757 342.5-757 379.5-757 412.83335-748.9167 442.5-732.75 472.16667-716.5833 495.75-694.5 513.25-666.5 530.75-638.5 539.5-606.5833 539.5-570.75 539.5-534.4167 531.0833-503.33335 514.25-477.5 497.41667-451.66667 477.08335-429.91667 453.25-412.25 429.41667-394.58335 407-379.66667 386-367.5L318.75-328.25C304.25-319.91667 288.75-309.54167 272.25-297.125 255.75-284.70835 241.875-270 230.625-253 219.375-236 213.75-215.58333 213.75-191.75 213.75-163.25 222.66667-140.875 240.5-124.625 258.33335-108.375 282.33335-100.25 312.5-100.25 331.5-100.25 348.33335-103.375 363-109.625 377.66667-115.875 390.58335-123.75 401.75-133.25 412.91667-142.75 422.625-153.04167 430.875-164.125 439.125-175.20833 446.58335-185.5 453.25-195L569.75-364.5H706.5L571.75-154.5C561.5833-138.33333 549.2083-120.583339 534.625-101.25 520.0417-81.916667 502.41667-63.708337 481.75-46.625 461.08335-29.541666 436.54167-15.5 408.125-4.5 379.70835 6.5 346.16667 12 307.5 12Z"/>
</g>
<g id="font_5_91">
<path transform="matrix(.001,0,0,-.001,0,0)" d="M60.5 0V-543.5H184.25V-418.25L170-438.5C179.66667-477.83335 199.625-507.16667 229.875-526.5 260.125-545.8333 295.58335-555.5 336.25-555.5 380.58335-555.5 419.79167-543.9583 453.875-520.875 487.95835-497.79167 510-467.08335 520-428.75L482.5-425.5C499.33335-469.33335 524.375-501.95835 557.625-523.375 590.875-544.7917 629.25-555.5 672.75-555.5 711.25-555.5 745.6667-546.8333 776-529.5 806.3333-512.1667 830.2917-488.08335 847.875-457.25 865.4583-426.41667 874.25-390.75 874.25-350.25V0H743V-319C743-343.16667 738.6667-363.83335 730-381 721.3333-398.16667 709.25-411.54167 693.75-421.125 678.25-430.70835 659.75-435.5 638.25-435.5 617.4167-435.5 599.0417-430.70835 583.125-421.125 567.2083-411.54167 554.875-398.125 546.125-380.875 537.375-363.625 533-343 533-319V0H401.75V-319C401.75-343.16667 397.41667-363.83335 388.75-381 380.08335-398.16667 368-411.54167 352.5-421.125 337-430.70835 318.5-435.5 297-435.5 276-435.5 257.58335-430.70835 241.75-421.125 225.91667-411.54167 213.625-398.125 204.875-380.875 196.125-363.625 191.75-343 191.75-319V0H60.5Z"/>
</g>
<g id="font_5_102">
<path transform="matrix(.001,0,0,-.001,0,0)" d="M60.5 200V-543.5H184.25V-435.5L171.5-463.25C190.33333-492.25 215.83333-514.875 248-531.125 280.16667-547.375 317-555.5 358.5-555.5 410.16667-555.5 456.70835-542.9583 498.125-517.875 539.5417-492.79167 572.375-458.875 596.625-416.125 620.875-373.375 633-325.25 633-271.75 633-218.91666 621-170.95835 597-127.875 573-84.791667 540.2917-50.708337 498.875-25.625 457.45835-.54166606 410.41667 12 357.75 12 318.25 12 282 4.25 249-11.25 216-26.75 189.91667-49.333333 170.75-79L191.75-105V200H60.5ZM343.25-108C373.25-108 399.79167-115 422.875-129 445.95835-143 464.04167-162.375 477.125-187.125 490.20835-211.875 496.75-240.08333 496.75-271.75 496.75-303.58335 490.20835-331.70835 477.125-356.125 464.04167-380.54167 445.95835-399.875 422.875-414.125 399.79167-428.375 373.25-435.5 343.25-435.5 314.25-435.5 288.25-428.5 265.25-414.5 242.25-400.5 224.25-381.125 211.25-356.375 198.25-331.625 191.75-303.41667 191.75-271.75 191.75-240.08333 198.25-211.875 211.25-187.125 224.25-162.375 242.25-143 265.25-129 288.25-115 314.25-108 343.25-108Z"/>
</g>
<clipPath id="clip_6">
<path transform="matrix(.24,0,0,.24,0,0)" d="M260.83985 959.9121H1488.9649V1572.4121H260.83985Z" clip-rule="evenodd"/>
</clipPath>
<g id="font_7_23">
<path transform="matrix(.001,0,0,-.001,0,0)" d="M71.5-745H207.75V0H71.5Z"/>
</g>
<g id="font_7_70">
<path transform="matrix(.001,0,0,-.001,0,0)" d="M313.75 12C261.25 12 214.25-.54166606 172.75-25.625 131.25-50.708337 98.5-84.791667 74.5-127.875 50.5-170.95835 38.5-218.91666 38.5-271.75 38.5-325.25 50.625-373.375 74.875-416.125 99.125-458.875 131.95833-492.79167 173.375-517.875 214.79167-542.9583 261.33335-555.5 313-555.5 354.5-555.5 391.375-547.375 423.625-531.125 455.875-514.875 481.33335-492.25 500-463.25L479.75-435.5V-757H611V0H487.25V-105L500.75-79C482.08335-49.333333 456.125-26.75 422.875-11.25 389.625 4.25 353.25 12 313.75 12ZM328.25-108C357.75-108 383.875-115 406.625-129 429.375-143 447.25-162.375 460.25-187.125 473.25-211.875 479.75-240.08333 479.75-271.75 479.75-303.41667 473.25-331.625 460.25-356.375 447.25-381.125 429.375-400.5 406.625-414.5 383.875-428.5 357.75-435.5 328.25-435.5 298.91667-435.5 272.54167-428.375 249.125-414.125 225.70833-399.875 207.45833-380.54167 194.375-356.125 181.29167-331.70835 174.75-303.58335 174.75-271.75 174.75-240.08333 181.29167-211.875 194.375-187.125 207.45833-162.375 225.66667-143 249-129 272.33335-115 298.75-108 328.25-108Z"/>
</g>
<g id="font_7_91">
<path transform="matrix(.001,0,0,-.001,0,0)" d="M60.5 0V-543.5H184.25V-418.25L170-438.5C179.66667-477.83335 199.625-507.16667 229.875-526.5 260.125-545.8333 295.58335-555.5 336.25-555.5 380.58335-555.5 419.79167-543.9583 453.875-520.875 487.95835-497.79167 510-467.08335 520-428.75L482.5-425.5C499.33335-469.33335 524.375-501.95835 557.625-523.375 590.875-544.7917 629.25-555.5 672.75-555.5 711.25-555.5 745.6667-546.8333 776-529.5 806.3333-512.1667 830.2917-488.08335 847.875-457.25 865.4583-426.41667 874.25-390.75 874.25-350.25V0H743V-319C743-343.16667 738.6667-363.83335 730-381 721.3333-398.16667 709.25-411.54167 693.75-421.125 678.25-430.70835 659.75-435.5 638.25-435.5 617.4167-435.5 599.0417-430.70835 583.125-421.125 567.2083-411.54167 554.875-398.125 546.125-380.875 537.375-363.625 533-343 533-319V0H401.75V-319C401.75-343.16667 397.41667-363.83335 388.75-381 380.08335-398.16667 368-411.54167 352.5-421.125 337-430.70835 318.5-435.5 297-435.5 276-435.5 257.58335-430.70835 241.75-421.125 225.91667-411.54167 213.625-398.125 204.875-380.875 196.125-363.625 191.75-343 191.75-319V0H60.5Z"/>
</g>
<g id="font_7_59">
<path transform="matrix(.001,0,0,-.001,0,0)" d="M226 12C188 12 154.91667 5.625 126.75-7.125 98.58333-19.875 76.833339-37.958333 61.5-61.375 46.166666-84.79167 38.5-112.416667 38.5-144.25 38.5-174.25 45.25-201 58.75-224.5 72.25-248 93.041667-267.75 121.125-283.75 149.20833-299.75 184.41666-311.08335 226.75-317.75L404.5-346.75V-247.25L251.5-220.5C225.83333-215.83333 206.625-207.625 193.875-195.875 181.125-184.125 174.75-168.41667 174.75-148.75 174.75-130.25 181.875-115.416667 196.125-104.25 210.375-93.083339 228.25-87.5 249.75-87.5 277.41667-87.5 301.66667-93.458339 322.5-105.375 343.33335-117.291667 359.54167-133.45833 371.125-153.875 382.70835-174.29167 388.5-196.83333 388.5-221.5V-362C388.5-385.5 379.45835-405 361.375-420.5 343.29167-436 319.08335-443.75 288.75-443.75 260.58335-443.75 235.79167-436.20835 214.375-421.125 192.95833-406.04167 177.25-386.25 167.25-361.75L60.25-413.75C70.75-442.41667 87.45833-467.33335 110.375-488.5 133.29167-509.66667 160.5-526.125 192-537.875 223.5-549.625 257.5-555.5 294-555.5 338.33335-555.5 377.54167-547.3333 411.625-531 445.70835-514.6667 472.25-492 491.25-463 510.25-434 519.75-400.33335 519.75-362V0H396V-92.75L424.25-94.5C409.91667-71.5 393.04167-52.083337 373.625-36.25 354.20835-20.416666 332.20835-8.416667 307.625-.25 283.04167 7.916667 255.83333 12 226 12Z"/>
</g>
<g id="font_8_42">
<path transform="matrix(.001,0,0,-.001,0,0)" d="M77 0V-745H348C398-745 442.08335-735.75 480.25-717.25 518.4167-698.75 548.25-672.0833 569.75-637.25 591.25-602.4167 602-560.6667 602-512 602-464 591.1667-422.66667 569.5-388 547.8333-353.33335 518-326.66667 480-308 442-289.33335 398-280 348-280H194.5V0H77ZM194.5-385H350.5C377.5-385 401-390.25 421-400.75 441-411.25 456.58335-426.08335 467.75-445.25 478.91667-464.41667 484.5-486.83335 484.5-512.5 484.5-538.5 478.91667-561 467.75-580 456.58335-599 441-613.75 421-624.25 401-634.75 377.5-640 350.5-640H194.5V-385Z"/>
</g>
<g id="font_8_22">
<path transform="matrix(.001,0,0,-.001,0,0)" d="M77 0V-745H194.5V-416.5H539.5V-745H657V0H539.5V-311.5H194.5V0H77Z"/>
</g>
<g id="font_8_1">
<path transform="matrix(.001,0,0,-.001,0,0)" d="M11 0 273-745H419L681 0H554.5L497.5-167H194.5L137 0H11ZM229-272H462L329.5-662H362.5L229-272Z"/>
</g>
<g id="font_8_45">
<path transform="matrix(.001,0,0,-.001,0,0)" d="M77 0V-745H347.5C397.5-745 441.58335-735.75 479.75-717.25 517.9167-698.75 547.75-672.0833 569.25-637.25 590.75-602.4167 601.5-560.6667 601.5-512 601.5-460.33335 588.75-416.25 563.25-379.75 537.75-343.25 503.33335-316.66667 460-300L632 0H498L315-325 392-280H194.5V0H77ZM194.5-385H350C377-385 400.5-390.25 420.5-400.75 440.5-411.25 456.08335-426.08335 467.25-445.25 478.41667-464.41667 484-486.83335 484-512.5 484-538.5 478.41667-561 467.25-580 456.08335-599 440.5-613.75 420.5-624.25 400.5-634.75 377-640 350-640H194.5V-385Z"/>
</g>
<g id="font_8_31">
<path transform="matrix(.001,0,0,-.001,0,0)" d="M77 0V-745H187L466.5-357H412L687-745H797V0H679.5V-605.5L723.5-593.5 443-210H431L156-593.5 194.5-605.5V0H77Z"/>
</g>
<clipPath id="clip_9">
<path transform="matrix(.24,0,0,.24,0,0)" d="M106.25 465.625H259.375V618.75H106.25Z" clip-rule="evenodd"/>
</clipPath>
<clipPath id="clip_10">
<path transform="matrix(.24,0,0,.24,0,0)" d="M0 0H1746.875V2480H0Z" clip-rule="evenodd"/>
</clipPath>
<g id="font_11_31">
<path transform="matrix(.001,0,0,-.001,0,0)" d="M66 0V-745H216L495-375H425L696-745H846V0H691V-574L753-560 466-190H446L169-560 221-574V0H66Z"/>
</g>
<g id="font_11_80">
<path transform="matrix(.001,0,0,-.001,0,0)" d="M55 0V-546H205V0H55ZM55-595V-745H205V-595H55Z"/>
</g>
<g id="font_11_108">
<path transform="matrix(.001,0,0,-.001,0,0)" d="M318 6C252 6 200.83335-11.833332 164.5-47.5 128.16666-83.16667 110-133 110-197V-416H18V-546H23C51-546 72.5-553 87.5-567 102.5-581 110-602 110-630V-670H260V-546H388V-416H260V-207C260-188.33333 263.33335-172.83333 270-160.5 276.66667-148.16667 287-139 301-133 315-127 332.33335-124 353-124 357.66667-124 363-124.333339 369-125 375-125.666667 381.33335-126.333339 388-127V0C378 1.3333334 366.66667 2.6666666 354 4 341.33335 5.3333337 329.33335 6 318 6Z"/>
</g>
<g id="font_11_79">
<path transform="matrix(.001,0,0,-.001,0,0)" d="M55 0V-757H205V-438L187-462C199.66667-494.66667 220.16667-518.8333 248.5-534.5 276.83335-550.1667 310-558 348-558 389.33335-558 425.5-549.3333 456.5-532 487.5-514.6667 511.66667-490.5 529-459.5 546.3333-428.5 555-392.33335 555-351V0H405V-319C405-340.33335 400.83335-358.66667 392.5-374 384.16667-389.33335 372.5-401.33335 357.5-410 342.5-418.66667 325-423 305-423 285.66667-423 268.33335-418.66667 253-410 237.66667-401.33335 225.83333-389.33335 217.5-374 209.16667-358.66667 205-340.33335 205-319V0H55Z"/>
</g>
<g id="font_11_109">
<path transform="matrix(.001,0,0,-.001,0,0)" d="M251 12C207 12 169.5 2.5 138.5-16.5 107.5-35.5 84-62 68-96 52-130 44-169.66666 44-215V-546H194V-227C194-206.33333 198.16667-188.16667 206.5-172.5 214.83333-156.83333 226.66667-144.66667 242-136 257.33335-127.333339 274.66667-123 294-123 314-123 331.5-127.333339 346.5-136 361.5-144.66667 373.16667-156.83333 381.5-172.5 389.83335-188.16667 394-206.33333 394-227V-546H544V0H404V-108L412-84C399.33335-51.333333 378.83335-27.166668 350.5-11.5 322.16667 4.166667 289 12 251 12Z"/>
</g>
<g id="font_11_178">
</g>
<g id="font_11_45">
<path transform="matrix(.001,0,0,-.001,0,0)" d="M66 0V-745H351C402.33335-745 447.83335-736 487.5-718 527.1667-700 558.3333-673.3333 581-638 603.6667-602.6667 615-559 615-507 615-456.33335 603.3333-413.16667 580-377.5 556.6667-341.83335 525.3333-315 486-297L656 0H482L298-329 398-270H221V0H66ZM221-405H352C374-405 393-409.33335 409-418 425-426.66667 437.5-438.66667 446.5-454 455.5-469.33335 460-487 460-507 460-527.6667 455.5-545.6667 446.5-561 437.5-576.3333 425-588.3333 409-597 393-605.6667 374-610 352-610H221V-405Z"/>
</g>
<g id="font_11_59">
<path transform="matrix(.001,0,0,-.001,0,0)" d="M224 12C184.66666 12 150.66667 5.666667 122-7 93.33333-19.666668 71.333339-37.833333 56-61.5 40.666666-85.16667 33-113.33333 33-146 33-176.66667 40-203.83333 54-227.5 68-251.16667 89.5-271 118.5-287 147.5-303 183.66666-314.33335 227-321L394-348V-238L254-213C232.66667-209 216.33333-202.16667 205-192.5 193.66667-182.83333 188-169 188-151 188-134.33333 194.33333-121.333339 207-112 219.66667-102.666667 235.33333-98 254-98 278.66667-98 300.33335-103.333339 319-114 337.66667-124.666667 352.16667-139.16667 362.5-157.5 372.83335-175.83333 378-196 378-218V-360C378-380.66667 369.83335-398 353.5-412 337.16667-426 315-433 287-433 260.33335-433 236.83333-425.66667 216.5-411 196.16667-396.33335 181.33333-377 172-353L52-410C62.666669-440.66667 79.666667-467 103-489 126.333339-511 154.33333-528 187-540 219.66667-552 255.33333-558 294-558 340-558 380.66667-549.6667 416-533 451.33335-516.3333 478.83335-493.16667 498.5-463.5 518.1667-433.83335 528-399.33335 528-360V0H388V-88L422-94C406-70 388.33335-50.166669 369-34.5 349.66667-18.833333 328-7.166667 304 .5 280 8.166667 253.33333 12 224 12Z"/>
</g>
<g id="font_11_92">
<path transform="matrix(.001,0,0,-.001,0,0)" d="M55 0V-546H195V-438L187-462C199.66667-494.66667 220.16667-518.8333 248.5-534.5 276.83335-550.1667 310-558 348-558 389.33335-558 425.5-549.3333 456.5-532 487.5-514.6667 511.66667-490.5 529-459.5 546.3333-428.5 555-392.23439 555-350.70314V0H405V-319C405-340.33335 400.83335-358.66667 392.5-374 384.16667-389.33335 372.46876-401.33335 357.40626-410 342.34376-418.66667 325.0104-423 305.40626-423 285.8021-423 268.33335-418.66667 253-410 237.66667-401.33335 225.83333-389.33335 217.5-374 209.16667-358.66667 205-340.33335 205-319V0H55Z"/>
</g>
<g id="font_11_78">
<path transform="matrix(.001,0,0,-.001,0,0)" d="M323 220C281 220 242 213 206 199 170 185 139.16667 165.5 113.5 140.5 87.83333 115.5 69.333339 86 58 52L197 3C204.33333 28.333334 219.33333 48.333333 242 63 264.66667 77.666667 291.66667 85 323 85 347.66667 85 369 80.5 387 71.5 405 62.5 418.83335 49.333337 428.5 32 438.16667 14.666666 443-5.666666 443-29V-154L472-118C453.33335-87.33333 429.33335-64.5 400-49.5 370.66667-34.5 336.33335-27 297-27 246.33333-27 201-38.5 161-61.5 121-84.5 89.66667-116.166667 67-156.5 44.333333-196.83335 33-242.66666 33-294 33-345.33335 44.333333-390.83335 67-430.5 89.66667-470.16667 120.666667-501.33335 160-524 199.33335-546.6667 244-558 294-558 333.33335-558 367.66667-550.1667 397-534.5 426.33335-518.8333 451.33335-495 472-463L453-427V-546H593V-29C593 19 581.3333 61.833333 558 99.5 534.6667 137.16667 502.83335 166.66667 462.5 188 422.16667 209.33333 375.66667 220 323 220ZM318-163C343.33335-163 365.33335-168.33333 384-179 402.66667-189.66667 417.16667-204.66667 427.5-224 437.83335-243.33333 443-266 443-292 443-318 437.66667-340.83335 427-360.5 416.33335-380.16667 401.66667-395.5 383-406.5 364.33335-417.5 342.66667-423 318-423 292.66667-423 270.16667-417.5 250.5-406.5 230.83333-395.5 215.5-380.16667 204.5-360.5 193.5-340.83335 188-318 188-292 188-266.66667 193.5-244.33333 204.5-225 215.5-205.66667 230.83333-190.5 250.5-179.5 270.16667-168.5 292.66667-163 318-163Z"/>
</g>
<g id="font_11_72">
<path transform="matrix(.001,0,0,-.001,0,0)" d="M318 12C260 12 209.66667-.83333209 167-26.5 124.33333-52.166669 91.333339-86.666667 68-130 44.666666-173.33335 33-221.33333 33-274 33-328.66667 45.166666-377.33335 69.5-420 93.833339-462.66667 126.666667-496.33335 168-521 209.33335-545.6667 256-558 308-558 351.33335-558 389.66667-551.1667 423-537.5 456.33335-523.8333 484.5-504.66667 507.5-480 530.5-455.33335 548-426.83335 560-394.5 572-362.16667 578-327 578-289 578-278.33335 577.5-267.83335 576.5-257.5 575.5-247.16667 573.6667-238.33333 571-231H162V-341H486L415-289C421.66667-317.66667 421.33335-343.16667 414-365.5 406.66667-387.83335 393.83335-405.5 375.5-418.5 357.16667-431.5 334.66667-438 308-438 282-438 259.66667-431.66667 241-419 222.33333-406.33335 208.33333-387.66667 199-363 189.66667-338.33335 186-308.33335 188-273 185.33333-242.33333 189-215.33333 199-192 209-168.66667 224.33333-150.5 245-137.5 265.66667-124.5 290.66667-118 320-118 346.66667-118 369.5-123.333339 388.5-134 407.5-144.66667 422.33335-159.33333 433-178L553-121C542.3333-94.33333 525.5-71 502.5-51 479.5-31 452.33335-15.5 421-4.5 389.66667 6.5 355.33335 12 318 12Z"/>
</g>
<path id="font_12_212" d="M.23800659 .5079956 .25 .5930023C.2560018 .6369985 .27083335 .6731618 .29449464 .7014923 .3181661 .72983297 .350001 .7483368 .3899994 .7570038L.3840027 .7120056C.3619995 .70666506 .34499613 .6968282 .33299256 .6824951 .32099916 .66816207 .31233726 .64999899 .30700685 .628006H.352005L.3350067 .5079956H.23800659M.070007327 .5079956 .08200073 .5930023C.088002528 .6369985 .103001918 .6731618 .1269989 .7014923 .1509959 .72983297 .18266297 .7483368 .22200012 .7570038L.21600342 .7120056C.19467163 .70666506 .1778361 .6968282 .16549683 .6824951 .15316773 .66816207 .14433797 .64999899 .13900757 .628006H.18400574L.16799927 .5079956H.070007327Z"/>
<path id="font_12_11" d="M.41600038-.011993408C.36799623-.011993408 .32332865-.003829956 .28199769 .012496948 .2406667 .028834025 .20466614 .052668256 .17399597 .083999637 .14333599 .11533102 .11933899 .15282695 .102005008 .19648743 .08467102 .24015808 .07600403 .289327 .07600403 .34399415 .07600403 .4013265 .08566793 .45499168 .10499573 .5049896 .1243337 .55499777 .15149944 .5988312 .18649292 .63648989 .22149658 .67415878 .2626648 .70365908 .30999757 .72499087 .35733033 .7463328 .40866599 .7570038 .46400453 .7570038 .51733908 .7570038 .5641683 .74783328 .6044922 .7294922 .64482626 .7111613 .6781616 .68749496 .7044983 .65849307 .73083499 .62950137 .7490031 .5990041 .7590027 .56700137L.66600039 .5279999C.6513316 .5693309 .62683108 .60266116 .5924988 .6279907 .5581665 .6533305 .51466879 .66600039 .46200563 .66600039 .42066447 .66600039 .38249208 .6579997 .3474884 .6419983 .3124949 .6259969 .28199769 .60332748 .2559967 .57398989 .22999573 .5446625 .20982869 .51049807 .1954956 .47149659 .18116252 .43249513 .17399597 .3899943 .17399597 .34399415 .17399597 .29066978 .1841634 .24417115 .20449829 .20449829 .22483318 .16483562 .2533315 .13400269 .2899933 .11199951 .32666526 .08999634 .3690033 .07899475 .41700746 .07899475 .47033183 .07899475 .5163269 .09199524 .5549927 .117996219 .59366866 .14399719 .6233368 .17766316 .6439972 .21899414L.7319946 .17500305C.717336 .14300029 .69500228 .11266581 .6649933 .083999637 .6349945 .055333456 .59899398 .032165529 .5569916 .01449585 .5149994-.0031636556 .46800233-.011993408 .41600038-.011993408Z"/>
<path id="font_12_105" d="M.033996583 0 .11000061 .53900149H.20199585L.18800354 .44000245 .17900086 .45399476C.19633484 .48466493 .21899922 .50749716 .24699402 .52249148 .274999 .5374959 .30766807 .54499819 .34500123 .54499819H.37800599L.3650055 .45700074H.31799317C.27999879 .45700074 .2480011 .44483439 .22200012 .4205017 .19599915 .39616905 .17933147 .35967 .17199707 .31100465L.1289978 0H.033996583Z"/>
<path id="font_12_72" d="M.30499269-.011993408C.25499473-.011993408 .21099346-.0006612142 .17298889 .022003174 .1349945 .04466756 .105163577 .07583109 .083496097 .115493778 .061828615 .15516663 .050994874 .20033773 .050994874 .25100709 .050994874 .29166667 .057825727 .32999674 .07148743 .3659973 .0851593 .4019979 .10482788 .43399558 .13049317 .46199037 .15616863 .48999534 .18583679 .5118306 .21949768 .52749636 .25316874 .54316207 .29033409 .5509949 .33099366 .5509949 .381663 .5509949 .42466227 .53966268 .45999146 .5169983 .4953308 .4943339 .5223338 .4648336 .54100039 .4284973 .55966696 .39216105 .56900027 .35266114 .56900027 .30999757 .56900027 .29866538 .56799826 .28666688 .56599429 .27400209 .5640004 .26133729 .5620015 .2506714 .55999758 .2420044H.117996219L.1230011 .32200624H.5119934L.46499635 .28700257C.47366334 .32099916 .47299705 .35149638 .46299745 .37849427 .45299784 .40550233 .43633018 .4271698 .41299439 .4434967 .3896688 .45983378 .3620046 .46800233 .33000184 .46800233 .28933207 .46800233 .25549827 .4581655 .22850037 .43849183 .20150249 .41882835 .1811676 .39149476 .16749573 .3564911 .15383403 .3214976 .14700318 .2813314 .14700318 .23599243 .14700318 .20266724 .15416973 .17367046 .16850281 .14900208 .18283589 .1243337 .20200093 .10549927 .22599793 .09249878 .24999492 .07949829 .2766622 .07299805 .30599977 .07299805 .34266154 .07299805 .37416078 .08149719 .40049745 .09849548 .4268341 .115493778 .44833375 .13699341 .46499635 .16299439L.54200747 .1210022C.52933248 .096333827 .5113271 .07383219 .48799134 .053497316 .46466575 .033162435 .43733216 .01716105 .4059906 .005493164 .3746592-.006164551 .34099327-.011993408 .30499269-.011993408Z"/>
<path id="font_12_59" d="M.20599365-.011993408C.17533367-.011993408 .14683533-.0064951579 .12049866 .004501343 .09416199 .015497844 .07299296 .031829835 .056991579 .053497316 .041000368 .075164798 .03300476 .10233053 .03300476 .1349945 .03300476 .16633606 .040837606 .19417317 .056503297 .21850586 .07216898 .24283855 .09450277 .26283775 .12350464 .27850343 .15250652 .2941691 .18667095 .30500285 .22599793 .31100465L.42999269 .34399415 .42199708 .26600648 .2420044 .23500061C.20799764 .22899883 .18099468 .21782939 .16099549 .20149231 .14099629 .1851654 .1309967 .16466777 .1309967 .13999939 .1309967 .117335 .13949585 .09950256 .15649414 .086502078 .17350261 .07350159 .19567363 .06700134 .2230072 .06700134 .2543386 .06700134 .2828369 .07433065 .3085022 .08898926 .33416749 .10365804 .35549928 .12349447 .37249757 .14849854 .38949586 .17350261 .399999 .20100403 .40400697 .23100281L.42100526 .35899354C.42500306 .3830007 .42200218 .40283714 .41200257 .4185028 .40200297 .4341685 .38816834 .4458313 .37049867 .4534912 .35282899 .4611613 .33399455 .46499635 .31399537 .46499635 .2813314 .46499635 .25216676 .45665995 .22650147 .43998719 .20083618 .42332459 .18100484 .4023285 .16700745 .3769989L.08900452 .42399598C.10233053 .44866435 .12049357 .47049967 .14349365 .48950196 .16649373 .5085042 .19316101 .5235036 .22349549 .5345001 .25382997 .54549667 .28600059 .5509949 .32000733 .5509949 .3600057 .5509949 .3958384 .5426636 .4275055 .526001 .45917259 .5093384 .48316957 .4863383 .49949647 .45700074 .51583358 .42766319 .52133688 .3936615 .51600649 .35499574L.46600343 0H.37399293L.3880005 .102005008 .40800477 .09300232C.3939972 .07167053 .3766581 .053171796 .35598756 .037506105 .33532716 .021840414 .31232707 .009674072 .2869873 .0010070801 .2616577-.007659912 .23465984-.011993408 .20599365-.011993408Z"/>
<path id="font_12_108" d="M.2579956-.005996704C.20466106-.005996704 .16532898 .009333293 .13999939 .039993287 .1146698 .07066345 .1056722 .11366781 .11300659 .16900635L.1519928 .44999696H.054992677L.06700134 .53900149H.085006717C.1090037 .53900149 .12950135 .54666647 .14649964 .56199648 .16349793 .5773366 .17332967 .5970052 .17599488 .6210022L.18200684 .6629944H.2769928L.2599945 .53900149H.3789978L.3659973 .44999696H.24699402L.20700073 .16600037C.20433553 .14800518 .20466614 .13250733 .20799256 .119506839 .21132915 .10650635 .21866353 .09650167 .22999573 .0894928 .24132793 .0824941 .257665 .07899475 .27900697 .07899475 .28499858 .07899475 .29149375 .079325359 .29849244 .07998657 .3055013 .08065796 .31200157 .081329349 .31799317 .08200073L.31100465-.0010070801C.30233766-.003672282 .29283653-.005167643 .28250123-.005493164 .27216593-.0058288576 .2639974-.005996704 .2579956-.005996704Z"/>
<path id="font_12_178" d=""/>
<path id="font_12_54" d="M.18299866 0 .07800293 .7449951H.17799378L.2619934 .08900452H.23500061L.5130005 .7449951H.6139984L.70500186 .08900452H.67500308L.9470062 .7449951H1.052002L.7389984 0H.6300049L.53900149 .6529999H.56700137L.29200746 0H.18299866Z"/>
<path id="font_12_80" d="M.033996583 0 .11000061 .53900149H.20399475L.1289978 0H.033996583M.12199402 .625 .13800049 .7449951H.23300171L.21699524 .625H.12199402Z"/>
<path id="font_12_79" d="M.033996583 0 .13999939 .7570038H.23399353L.18899536 .43400575 .17300415 .44500733C.19033814 .4790039 .21500142 .50516769 .24699402 .52349856 .2789968 .5418294 .31400047 .5509949 .352005 .5509949 .391332 .5509949 .42532859 .54166159 .45399476 .522995 .48266093 .5043284 .5038249 .4788259 .5174866 .44648744 .53115847 .41415916 .5349986 .3773295 .52900698 .33599855L.48199464 0H.3869934L.43299867 .32800294C.43832908 .3686727 .43099467 .40100608 .41099549 .42500306 .3909963 .44900004 .3626658 .46099855 .32600404 .46099855 .30066429 .46099855 .27716065 .45516459 .25549317 .4434967 .23383586 .43182884 .2156728 .41532899 .20100403 .3939972 .18633525 .3726654 .17700196 .34733073 .17300415 .31799317L.1289978 0H.033996583Z"/>
<path id="font_12_213" d="M.23800659 .4960022 .2440033 .54100039C.2659963 .54633077 .2829946 .55616256 .29499818 .5704956 .30700175 .5848287 .31566874 .6029968 .32099916 .625H.27600099L.29200746 .7449951H.3899994L.37800599 .66000369C.3726654 .6166687 .3579966 .5808309 .33399964 .55249026 .31000266 .5241597 .27800498 .5053304 .23800659 .4960022M.070007327 .4960022 .07699585 .54100039C.09832764 .54633077 .11515808 .55616256 .12748719 .5704956 .13982646 .5848287 .14866638 .6029968 .15400696 .625H.10800171L.125 .7449951H.22200012L.21000672 .66000369C.20466614 .6166687 .18999736 .5808309 .16600037 .55249026 .14200337 .5241597 .1100057 .5053304 .070007327 .4960022Z"/>
<g id="font_13_23">
<path transform="matrix(.001,0,0,-.001,0,0)" d="M77-745H194.5V0H77Z"/>
</g>
<g id="font_13_13">
<path transform="matrix(.001,0,0,-.001,0,0)" d="M77 0V-745H321C398.2292-745 465.36979-729.4167 522.4219-698.25 579.47396-667.0833 623.6667-623.5833 655-567.75 686.3333-511.91667 702-446.92189 702-372.76564 702-299.2552 686.3333-234.41667 655-178.25 623.6667-122.08333 579.47396-78.333339 522.4219-47 465.36979-15.666666 398.2292 0 321 0H77ZM194.5-105H323C375.875-105 421.6771-116 460.40626-138 499.1354-160 529.1667-191.0677 550.5-231.20313 571.8333-271.34898 582.5-318.6875 582.5-373.21876 582.5-427.7396 571.7552-474.90626 550.2656-514.71878 528.77609-554.53128 498.69273-585.36459 460.01564-607.21878 421.33854-629.07296 375.66667-640 323-640H194.5V-105Z"/>
</g>
<g id="font_13_31">
<path transform="matrix(.001,0,0,-.001,0,0)" d="M77 0V-745H187L466.5-357H412L687-745H797V0H679.5V-605.5L723.5-593.5 443-210H431L156-593.5 194.5-605.5V0H77Z"/>
</g>
<g id="font_13_1">
<path transform="matrix(.001,0,0,-.001,0,0)" d="M11 0 273-745H419L681 0H554.5L497.5-167H194.5L137 0H11ZM229-272H462L329.5-662H362.5L229-272Z"/>
</g>
<g id="font_13_178">
</g>
<g id="font_13_42">
<path transform="matrix(.001,0,0,-.001,0,0)" d="M77 0V-745H348C398-745 442.08335-735.75 480.25-717.25 518.4167-698.75 548.25-672.0833 569.75-637.25 591.25-602.4167 602-560.6667 602-512 602-464 591.1667-422.66667 569.5-388 547.8333-353.33335 518-326.66667 480-308 442-289.33335 398-280 348-280H194.5V0H77ZM194.5-385H350.5C377.5-385 401-390.25 421-400.75 441-411.25 456.58335-426.08335 467.75-445.25 478.91667-464.41667 484.5-486.83335 484.5-512.5 484.5-538.5 478.91667-561 467.75-580 456.58335-599 441-613.75 421-624.25 401-634.75 377.5-640 350.5-640H194.5V-385Z"/>
</g>
<g id="font_13_79">
<path transform="matrix(.001,0,0,-.001,0,0)" d="M66 0V-757H178.5V-435L161-449C174-482.66667 195.16667-508.41667 224.5-526.25 253.83333-544.0833 288-553 327-553 366.66667-553 401.83335-544.3333 432.5-527 463.16667-509.66667 487.25-485.66667 504.75-455 522.25-424.33335 531-389.16667 531-349.5V0H418.5V-319C418.5-346 413.41667-369 403.25-388 393.08335-407 379-421.75 361-432.25 343-442.75 322.33335-448 299-448 276-448 255.33333-442.75 237-432.25 218.66667-421.75 204.33333-406.91667 194-387.75 183.66667-368.58335 178.5-345.66667 178.5-319V0H66Z"/>
</g>
<g id="font_13_59">
<path transform="matrix(.001,0,0,-.001,0,0)" d="M228 12C191.33333 12 159.16667 5.583334 131.5-7.25 103.83333-20.083334 82.333339-38.083333 67-61.25 51.666666-84.41667 44-111.5 44-142.5 44-171.83333 50.5-198.16667 63.5-221.5 76.5-244.83333 96.58333-264.5 123.75-280.5 150.91667-296.5 185.16666-307.83335 226.5-314.5L415-345.5V-256.5L249-228C219-222.66667 196.91667-213.08333 182.75-199.25 168.58333-185.41667 161.5-167.83333 161.5-146.5 161.5-126.166667 169.41667-109.5 185.25-96.5 201.08333-83.5 221.16667-77 245.5-77 276.16667-77 303-83.583339 326-96.75 349-109.916667 366.91667-127.75 379.75-150.25 392.58335-172.75 399-197.66667 399-225V-364C399-390.33335 389.08335-412 369.25-429 349.41667-446 323.16667-454.5 290.5-454.5 260.83335-454.5 234.75-446.75 212.25-431.25 189.75-415.75 173.16667-395.5 162.5-370.5L68.5-417.5C78.833339-444.16667 95.25-467.66667 117.75-488 140.25-508.33335 166.66667-524.25 197-535.75 227.33333-547.25 259.66667-553 294-553 336.66667-553 374.41667-545 407.25-529 440.08335-513 465.66667-490.83335 484-462.5 502.33335-434.16667 511.5-401.33335 511.5-364V0H404V-97.5L426.5-95C413.83335-73 397.75-54 378.25-38 358.75-22 336.41667-9.666667 311.25-1 286.08335 7.666667 258.33335 12 228 12Z"/>
</g>
<g id="font_13_105">
<path transform="matrix(.001,0,0,-.001,0,0)" d="M66 0V-541H173.5V-431.5L163.5-447.5C175.83333-483.16667 195.33333-508.75 222-524.25 248.66667-539.75 280.66667-547.5 318-547.5H351V-445H304C266.33335-445 236-433.41667 213-410.25 190-387.08335 178.5-354.33335 178.5-312V0H66Z"/>
</g>
<g id="font_13_91">
<path transform="matrix(.001,0,0,-.001,0,0)" d="M66 0V-541H173.5V-423.5L160-442C171.33333-478.66667 191.91667-506.33335 221.75-525 251.58333-543.6667 285.83335-553 324.5-553 367.83335-553 406.41667-541.4167 440.25-518.25 474.08335-495.08335 496.66667-464.5 508-426.5L476-424C491.66667-467 516.0833-499.25 549.25-520.75 582.4167-542.25 620.1667-553 662.5-553 700.1667-553 734.1667-544.3333 764.5-527 794.8333-509.66667 818.9167-485.66667 836.75-455 854.5833-424.33335 863.5-389.16667 863.5-349.5V0H751V-319C751-346 746.1667-369 736.5-388 726.8333-407 713.5-421.75 696.5-432.25 679.5-442.75 659.5-448 636.5-448 614.1667-448 594.25-442.75 576.75-432.25 559.25-421.75 545.5833-406.91667 535.75-387.75 525.9167-368.58335 521-345.66667 521-319V0H408.5V-319C408.5-346 403.66667-369 394-388 384.33335-407 371-421.75 354-432.25 337-442.75 317-448 294-448 271.33335-448 251.33333-442.75 234-432.25 216.66667-421.75 203.08333-406.91667 193.25-387.75 183.41667-368.58335 178.5-345.66667 178.5-319V0H66Z"/>
</g>
</defs>
<path transform="matrix(.75,0,0,.75,0,0)" d="M0 0H559V794H0Z" fill="#ffffff"/>
<g clip-path="url(#clip_1)">
<path transform="matrix(.75,0,0,.75,0,-2382)" d="M0 3176H560V3970H0Z" fill="#ffffff"/>
<path transform="matrix(.75,0,0,.75,0,-2382)" d="M0 3176H559V3970H0Z" fill="#ffffff"/>
</g>
<g clip-path="url(#clip_2)">
<path transform="matrix(.75,0,0,.75,0,-2382)" d="M0 3176H559V3970H0Z" fill="#ffffff"/>
</g>
<g clip-path="url(#clip_3)">
<use data-text="P" xlink:href="#font_4_42" transform="matrix(9,0,0,-9,25.511719,58.5)"/>
<use data-text="a" xlink:href="#font_4_59" transform="matrix(9,0,0,-9,31.08276,58.5)"/>
<use data-text="t" xlink:href="#font_4_108" transform="matrix(9,0,0,-9,36.2398,58.5)"/>
<use data-text="i" xlink:href="#font_4_80" transform="matrix(9,0,0,-9,40.028825,58.5)"/>
<use data-text="e" xlink:href="#font_4_72" transform="matrix(9,0,0,-9,42.368844,58.5)"/>
<use data-text="n" xlink:href="#font_4_92" transform="matrix(9,0,0,-9,47.867879,58.5)"/>
<use data-text="t" xlink:href="#font_4_108" transform="matrix(9,0,0,-9,53.258916,58.5)"/>
<use data-text=" " xlink:href="#font_4_178" transform="matrix(9,0,0,-9,57.04794,58.5)"/>
<use data-text="n" xlink:href="#font_4_92" transform="matrix(9,0,0,-9,58.667955,58.5)"/>
<use data-text="a" xlink:href="#font_4_59" transform="matrix(9,0,0,-9,64.05899,58.5)"/>
<use data-text="m" xlink:href="#font_4_91" transform="matrix(9,0,0,-9,69.30603,58.5)"/>
<use data-text="e" xlink:href="#font_4_72" transform="matrix(9,0,0,-9,77.66708,58.5)"/>
<path transform="matrix(.75,0,0,.75,0,-2382)" d="M115 3256H525V3257H115Z" fill="#8c8c8c"/>
<use data-text="A" xlink:href="#font_4_1" transform="matrix(9,0,0,-9,25.511719,85.5)"/>
<use data-text="d" xlink:href="#font_4_70" transform="matrix(9,0,0,-9,31.919758,85.5)"/>
<use data-text="d" xlink:href="#font_4_70" transform="matrix(9,0,0,-9,37.976797,85.5)"/>
<use data-text="r" xlink:href="#font_4_105" transform="matrix(9,0,0,-9,44.033834,85.5)"/>
<use data-text="e" xlink:href="#font_4_72" transform="matrix(9,0,0,-9,47.50786,85.5)"/>
<use data-text="s" xlink:href="#font_4_106" transform="matrix(9,0,0,-9,53.006895,85.5)"/>
<use data-text="s" xlink:href="#font_4_106" transform="matrix(9,0,0,-9,57.641923,85.5)"/>
<path transform="matrix(.75,0,0,.75,0,-2382)" d="M88 3292H525V3293H88Z" fill="#8c8c8c"/>
<path transform="matrix(.75,0,0,.75,0,-2382)" stroke-width="1" stroke-linecap="butt" stroke-miterlimit="4" stroke-linejoin="miter" fill="none" stroke="#8c8c8c" d="M306.5 3912.4647V3830.5355C306.49998 3830 306.60237 3829.485 306.80714 3828.9906 307.0119 3828.496 307.3035 3828.0599 307.68193 3827.6817 308.0603 3827.3033 308.49668 3827.0118 308.9911 3826.807 309.4855 3826.6024 310.00028 3826.5 310.53544 3826.5H520.46456C520.99966 3826.5 521.51437 3826.6024 522.0088 3826.807 522.5032 3827.0118 522.9396 3827.3033 523.318 3827.6817 523.69638 3828.0599 523.988 3828.496 524.19277 3828.9906 524.3975 3829.485 524.49996 3830 524.5 3830.5355V3912.4647C524.49996 3912.9993 524.3975 3913.514 524.19277 3914.0084 523.988 3914.5028 523.69638 3914.939 523.318 3915.3177 522.9396 3915.6959 522.5032 3915.9874 522.0088 3916.1922 521.51437 3916.397 520.99966 3916.4998 520.46456 3916.5H310.53544C310.00028 3916.4998 309.4855 3916.3973 308.9911 3916.1925 308.4967 3915.9876 308.06034 3915.696 307.68196 3915.3179 307.30354 3914.9393 307.01194 3914.5028 306.80714 3914.0084 306.60237 3913.514 306.49998 3912.9993 306.5 3912.4647Z"/>
<use data-text="S" xlink:href="#font_5_46" transform="matrix(6.9975,0,0,-6.9975,280.0078,549.75)" fill="#4d4d4d"/>
<use data-text="i" xlink:href="#font_5_80" transform="matrix(6.9975,0,0,-6.9975,284.53428,549.75)" fill="#4d4d4d"/>
<use data-text="g" xlink:href="#font_5_78" transform="matrix(6.9975,0,0,-6.9975,286.2973,549.75)" fill="#4d4d4d"/>
<use data-text="n" xlink:href="#font_5_92" transform="matrix(6.9975,0,0,-6.9975,290.85877,549.75)" fill="#4d4d4d"/>
<use data-text="a" xlink:href="#font_5_59" transform="matrix(6.9975,0,0,-6.9975,295.00746,549.75)" fill="#4d4d4d"/>
<use data-text="t" xlink:href="#font_5_108" transform="matrix(6.9975,0,0,-6.9975,298.9952,549.75)" fill="#4d4d4d"/>
<use data-text="u" xlink:href="#font_5_109" transform="matrix(6.9975,0,0,-6.9975,301.8846,549.75)" fill="#4d4d4d"/>
<use data-text="r" xlink:href="#font_5_105" transform="matrix(6.9975,0,0,-6.9975,306.0333,549.75)" fill="#4d4d4d"/>
<use data-text="e" xlink:href="#font_5_72" transform="matrix(6.9975,0,0,-6.9975,308.64985,549.75)" fill="#4d4d4d"/>
<use data-text=" " xlink:href="#font_5_178" transform="matrix(6.9975,0,0,-6.9975,312.93147,549.75)" fill="#4d4d4d"/>
<use data-text="&amp;" xlink:href="#font_5_223" transform="matrix(6.9975,0,0,-6.9975,314.17677,549.75)" fill="#4d4d4d"/>
<use data-text=" " xlink:href="#font_5_178" transform="matrix(6.9975,0,0,-6.9975,319.72468,549.75)" fill="#4d4d4d"/>
<use data-text="S" xlink:href="#font_5_46" transform="matrix(6.9975,0,0,-6.9975,320.96998,549.75)" fill="#4d4d4d"/>
<use data-text="t" xlink:href="#font_5_108" transform="matrix(6.9975,0,0,-6.9975,325.49644,549.75)" fill="#4d4d4d"/>
<use data-text="a" xlink:href="#font_5_59" transform="matrix(6.9975,0,0,-6.9975,328.36833,549.75)" fill="#4d4d4d"/>
<use data-text="m" xlink:href="#font_5_91" transform="matrix(6.9975,0,0,-6.9975,332.42607,549.75)" fill="#4d4d4d"/>
<use data-text="p" xlink:href="#font_5_102" transform="matrix(6.9975,0,0,-6.9975,338.89045,549.75)" fill="#4d4d4d"/>
<path transform="matrix(.75,0,0,.75,0,-2382)" d="M34 3312H525V3314H34Z" fill="#c8102e"/>
</g>
<g clip-path="url(#clip_6)">
<path transform="matrix(1.3052124,-.11419129,.11419129,1.3052124,56.76889,243.50463)" d="M220.5 51.5C220.5 52.310106 220.45925 53.11972 220.37775 53.928853 220.29624 54.73798 220.17407 55.545648 220.01126 56.35185 219.84844 57.15805 219.64516 57.961816 219.40142 58.76315 219.15767 59.564485 218.87377 60.362424 218.54969 61.15696 218.22562 61.951498 217.86177 62.74168 217.45815 63.527509 217.05454 64.31334 216.61162 65.093868 216.12943 65.86908 215.64723 66.644298 215.12633 67.413288 214.56671 68.17603 214.00708 68.93878 213.40943 69.69438 212.77375 70.44282 212.13806 71.19126 211.4651 71.93165 210.75489 72.66397 210.04467 73.39629 209.29802 74.11968 208.51499 74.83412 207.73194 75.54857 206.91342 76.25322 206.05944 76.948078 205.20545 77.64292 204.317 78.32713 203.39414 79.00072 202.47127 79.67429 201.51506 80.33642 200.52555 80.98711 199.53603 81.637798 198.51436 82.276248 197.46057 82.902469 196.40676 83.52868 195.32207 84.141918 194.20653 84.74216 193.09099 85.34241 191.94593 85.92895 190.77133 86.50178 189.59676 87.07461 188.39406 87.63303 187.16324 88.17706 185.93242 88.72111 184.67499 89.25009 183.39092 89.764019 182.10684 90.27794 180.7977 90.77619 179.46347 91.25877 178.12924 91.74135 176.77155 92.20767 175.39037 92.65774 174.0092 93.1078 172.60622 93.54108 171.18141 93.95756 169.75662 94.37404 168.31174 94.77322 166.84676 95.1551 165.38178 95.53697 163.89847 95.90109 162.39684 96.24746 160.8952 96.59382 159.37705 96.922008 157.84236 97.232028 156.30768 97.54204 154.75833 97.8335 153.1943 98.106418 151.6303 98.37934 150.0535 98.633388 148.4639 98.868549 146.87432 99.10371 145.27384 99.3197 143.66249 99.51655 142.05115 99.71339 140.43088 99.89082 138.80167 100.04887 137.17246 100.20691 135.53629 100.34537 133.89315 100.46423 132.25 100.5831 130.60187 100.682239 128.94875 100.76165 127.295619 100.84105 125.639499 100.90062 123.98037 100.94038 122.32124 100.980129 120.661128 101 119 101 117.338878 101 115.67876 100.980129 114.01963 100.94038 112.36051 100.90062 110.70439 100.84105 109.05127 100.76165 107.39814 100.682239 105.75001 100.5831 104.106868 100.46423 102.463718 100.34537 100.82753 100.20691 99.198329 100.04887 97.569118 99.89082 95.948848 99.71339 94.33751 99.51654 92.726169 99.3197 91.125698 99.10371 89.5361 98.868549 87.946498 98.633388 86.36969 98.37934 84.80567 98.10642 83.24165 97.8335 81.69231 97.54204 80.15763 97.232028 78.622959 96.922008 77.1048 96.59382 75.60316 96.24746 74.10152 95.90109 72.61821 95.53697 71.15324 95.1551 69.68825 94.77322 68.24336 94.37404 66.818569 93.95756 65.393779 93.54108 63.990797 93.107799 62.60962 92.65773 61.228445 92.207668 59.87074 91.74134 58.53651 91.258769 57.202287 90.776187 55.893144 90.27793 54.609079 89.76401 53.32501 89.250087 52.06757 88.7211 50.836759 88.17706 49.605947 87.63303 48.403245 87.07461 47.228658 86.50178 46.05406 85.92895 44.908998 85.34241 43.793455 84.74216 42.67791 84.141918 41.59324 83.52869 40.539434 82.90247 39.485628 82.276248 38.463956 81.637798 37.474428 80.987117 36.484899 80.336429 35.528699 79.67429 34.605829 79.00072 33.682958 78.32713 32.79453 77.64292 31.940539 76.948078 31.086552 76.25323 30.268036 75.54858 29.48499 74.83413 28.70194 74.11968 27.955306 73.39629 27.245085 72.66397 26.53486 71.93165 25.861907 71.19126 25.226223 70.44282 24.59054 69.69438 23.99289 68.93878 23.433274 68.17603 22.873658 67.413288 22.35275 66.644298 21.870553 65.86908 21.388354 65.093868 20.945445 64.31334 20.541825 63.52751 20.138205 62.741685 19.77436 61.9515 19.45029 61.156965 19.126223 60.362428 18.84232 59.564489 18.598584 58.763154 18.354846 57.96182 18.151568 57.15805 17.98875 56.35185 17.825934 55.545648 17.70377 54.73798 17.622262 53.92885 17.540755 53.11972 17.5 52.310106 17.5 51.5 17.5 50.689897 17.540755 49.88028 17.622262 49.071149 17.70377 48.26202 17.825934 47.454355 17.98875 46.64815 18.151568 45.84195 18.354846 45.038179 18.598584 44.23684 18.84232 43.435506 19.126223 42.637567 19.45029 41.843027 19.77436 41.048486 20.138205 40.2583 20.541825 39.472478 20.945445 38.686655 21.388354 37.906129 21.870553 37.130907 22.35275 36.355684 22.873658 35.586698 23.433276 34.823949 23.99289 34.061197 24.59054 33.305604 25.226223 32.557168 25.861907 31.808728 26.53486 31.068346 27.245083 30.336022 27.955306 29.603697 28.701939 28.88031 29.484988 28.165862 30.268036 27.451413 31.086554 26.746764 31.94054 26.051915 32.79453 25.357064 33.682958 24.67285 34.605829 23.999272 35.528699 23.325695 36.484899 22.663567 37.474428 22.012885 38.463956 21.362202 39.485628 20.723752 40.539434 20.097533 41.59324 19.471312 42.67791 18.858078 43.793455 18.257832 44.908998 17.657584 46.05406 17.071043 47.228658 16.498213 48.403245 15.925383 49.605947 15.366951 50.83676 14.822918 52.067575 14.278885 53.325014 13.749907 54.60908 13.235982 55.893144 12.722057 57.20229 12.223806 58.536516 11.741227 59.87074 11.258648 61.22844 10.792323 62.609617 10.342254 63.990789 9.892184 65.39377 9.458911 66.81856 9.042434 68.243358 8.625957 69.68825 8.226778 71.15323 7.844897 72.6182 7.4630167 74.10151 7.0988938 75.60315 6.752529 77.10479 6.4061648 78.62295 6.0779759 80.15762 5.7679626 81.6923 5.457949 83.241649 5.1664845 84.805667 4.8935687 86.36968 4.620652 87.946498 4.366614 89.5361 4.131453 91.125698 3.896292 92.726169 3.680292 94.33751 3.4834526 95.948848 3.2866133 97.569118 3.1091719 99.198329 2.9511286 100.82753 2.7930849 102.46371 2.6546298 104.10686 2.5357626 105.75001 2.4168957 107.39814 2.3177603 109.05127 2.238356 110.70439 2.158952 112.36051 2.0993748 114.01963 2.059625 115.67876 2.019875 117.338878 2 119 2 120.661128 2 122.32124 2.019875 123.98037 2.059625 125.639499 2.0993748 127.295619 2.158952 128.94875 2.238356 130.60187 2.3177603 132.25 2.4168957 133.89315 2.5357626 135.53629 2.6546298 137.17246 2.7930849 138.80167 2.9511286 140.43088 3.1091719 142.05115 3.2866133 143.66249 3.4834526 145.27384 3.680292 146.87432 3.896292 148.4639 4.131453 150.0535 4.366614 151.6303 4.620652 153.1943 4.8935687 154.75833 5.1664845 156.30768 5.457949 157.84236 5.7679626 159.37705 6.0779759 160.8952 6.4061648 162.39684 6.7525289 163.89847 7.0988938 165.38178 7.4630167 166.84676 7.844897 168.31174 8.226778 169.7566 8.625957 171.1814 9.042433 172.60619 9.45891 174.00917 9.892183 175.39035 10.342253 176.77153 10.792323 178.12923 11.258647 179.46347 11.741226 180.7977 12.223804 182.10684 12.722056 183.39092 13.235981 184.67499 13.749906 185.93242 14.278885 187.16323 14.822919 188.39405 15.366951 189.59676 15.925383 190.77133 16.498213 191.94593 17.071043 193.09099 17.657582 194.20653 18.25783 195.32207 18.858078 196.40676 19.471312 197.46057 20.09753 198.51436 20.72375 199.53603 21.362202 200.52555 22.012885 201.51506 22.663567 202.47127 23.325695 203.39414 23.999272 204.317 24.67285 205.20545 25.357064 206.05944 26.051915 206.91342 26.746764 207.73194 27.451413 208.515 28.165862 209.29804 28.88031 210.04467 29.603697 210.75489 30.336022 211.4651 31.068346 212.13806 31.808728 212.77375 32.557168 213.40943 33.305604 214.00708 34.061197 214.5667 34.823949 215.12631 35.586698 215.64723 36.355684 216.12943 37.130907 216.61162 37.906129 217.05454 38.686655 217.45815 39.472478 217.86177 40.2583 218.22562 41.048486 218.5497 41.843027 218.87378 42.637567 219.15769 43.435506 219.40142 44.23684 219.64516 45.03818 219.84844 45.841955 220.01126 46.648157 220.17407 47.454359 220.29624 48.26202 220.37775 49.071149 220.45925 49.88028 220.5 50.689897 220.5 51.5Z" fill="#fcf1f2"/>
<path transform="matrix(1.3052124,-.11419129,.11419129,1.3052124,56.76889,243.50463)" d="M209 59.5C208.99999 60.3101 208.95963 61.119718 208.87892 61.92885 208.79822 62.73798 208.67728 63.545648 208.51607 64.35185 208.35485 65.15805 208.15357 65.961818 207.91223 66.76315 207.6709 67.56449 207.38979 68.36243 207.06891 69.15697 206.74803 69.9515 206.38777 70.741687 205.98813 71.52751 205.58849 72.31333 205.14994 73.09386 204.67249 73.86909 204.19503 74.6443 203.67925 75.413288 203.12514 76.17603 202.57105 76.93878 201.97928 77.694377 201.34987 78.44282 200.72045 79.19126 200.05413 79.93164 199.35089 80.66396 198.64768 81.396289 197.9084 82.119678 197.13309 82.83413 196.35774 83.54858 195.54729 84.25323 194.70172 84.948078 193.85614 85.64293 192.97646 86.32714 192.06267 87.00072 191.14888 87.67429 190.2021 88.336429 189.22232 88.98711 188.24254 89.63779 187.23094 90.27624 186.18753 90.90246 185.1441 91.52868 184.07012 92.141918 182.96555 92.742168 181.861 93.34241 180.72722 93.92895 179.56421 94.501789 178.4012 95.074619 177.21035 95.63305 175.99167 96.17708 174.773 96.721118 173.52794 97.2501 172.25653 97.76402 170.98509 98.27795 169.68885 98.77619 168.36777 99.25877 167.04668 99.74135 165.70236 100.20767 164.3348 100.65774 162.96723 101.10781 161.57807 101.541088 160.16732 101.95756 158.75656 102.37404 157.32592 102.77322 155.87537 103.1551 154.42482 103.53698 152.95612 103.9011 151.46927 104.24747 149.98244 104.593837 148.47924 104.92202 146.95967 105.23203 145.44011 105.54204 143.90604 105.8335 142.35744 106.10643 140.8088 106.37934 139.24755 106.633388 137.67362 106.868549 136.09967 107.10371 134.51497 107.31971 132.9195 107.51655 131.32404 107.71339 129.71973 107.89083 128.10657 108.048877 126.493419 108.20692 124.87336 108.345378 123.24641 108.46425 121.619449 108.583118 119.98755 108.68225 118.350719 108.76165 116.713878 108.84105 115.074069 108.90063 113.4313 108.94037 111.78851 108.980129 110.14475 109 108.5 109 106.85525 109 105.21148 108.980129 103.5687 108.94038 101.92592 108.90063 100.28611 108.84105 98.64928 108.76165 97.012439 108.68225 95.38054 108.583118 93.753589 108.46425 92.126628 108.345378 90.50656 108.20692 88.89341 108.048877 87.28026 107.89083 85.67595 107.71339 84.08048 107.516559 82.48501 107.31972 80.90031 107.103717 79.32637 106.86855 77.75243 106.63339 76.191158 106.37935 74.64255 106.10643 73.09394 105.8335 71.55985 105.54204 70.0403 105.23203 68.520748 104.92202 67.01754 104.593837 65.5307 104.247478 64.04385 103.90111 62.57516 103.53698 61.124616 103.155109 59.674066 102.77323 58.243413 102.37405 56.832658 101.957569 55.4219 101.541088 54.032747 101.10781 52.66518 100.657749 51.297616 100.20767 49.95329 99.74135 48.63221 99.25877 47.311128 98.7762 46.014879 98.277957 44.743467 97.76403 43.472055 97.2501 42.227 96.721118 41.008317 96.17708 39.789636 95.63305 38.598787 95.074619 37.435766 94.501789 36.272745 93.92895 35.138959 93.34241 34.034406 92.742168 32.929857 92.14192 31.855872 91.52869 30.812447 90.90247 29.769024 90.276248 28.757422 89.637798 27.77764 88.98711 26.79786 88.336429 25.85108 87.67429 24.937302 87.00072 24.023524 86.32714 23.143847 85.64293 22.298274 84.94808 21.452698 84.25323 20.642245 83.54858 19.866913 82.83413 19.091578 82.119678 18.352299 81.396289 17.649075 80.66396 16.945849 79.93164 16.279526 79.19126 15.650104 78.44282 15.020682 77.694377 14.428921 76.93878 13.874819 76.17603 13.320717 75.41329 12.804942 74.64431 12.327495 73.869098 11.850046 73.093868 11.411501 72.31334 11.011858 71.52751 10.612214 70.741687 10.251954 69.9515 9.931078 69.15697 9.610202 68.36243 9.329096 67.56449 9.08776 66.76315 8.846424 65.961818 8.645148 65.15805 8.483934 64.35185 8.322721 63.545648 8.20176 62.73798 8.121056 61.928853 8.040352 61.11972 8 60.3101 8 59.5 8 58.689897 8.040352 57.88028 8.121057 57.07115 8.201761 56.26202 8.322721 55.454359 8.483935 54.648157 8.645149 53.84195 8.846424 53.038179 9.08776 52.236837 9.329096 51.4355 9.610202 50.63756 9.931078 49.843027 10.251954 49.04849 10.612214 48.258306 11.011858 47.472478 11.411501 46.68665 11.850047 45.906126 12.327496 45.1309 12.804942 44.35568 13.320717 43.586694 13.87482 42.823949 14.428921 42.0612 15.020682 41.305608 15.650104 40.557168 16.279526 39.808729 16.945849 39.068349 17.649075 38.33602 18.352299 37.603696 19.091578 36.88031 19.866913 36.165864 20.642245 35.451414 21.452698 34.74676 22.298274 34.05191 23.143847 33.35706 24.023524 32.672845 24.937302 31.999272 25.85108 31.325694 26.797862 30.663565 27.777642 30.012883 28.757422 29.3622 29.769022 28.723752 30.812445 28.097533 31.85587 27.471312 32.92986 26.858078 34.03441 26.257832 35.138959 25.657584 36.272745 25.071043 37.435766 24.498213 38.598787 23.925383 39.789636 23.366951 41.00832 22.822918 42.227006 22.278887 43.472055 21.749909 44.743467 21.235983 46.014879 20.722058 47.311128 20.223805 48.632207 19.741225 49.95329 19.258645 51.297616 18.79232 52.66518 18.34225 54.032747 17.892182 55.421907 17.458909 56.83266 17.042433 58.243417 16.625956 59.67407 16.226777 61.12462 15.844895 62.57516 15.463015 64.04385 15.098891 65.5307 14.752527 67.01754 14.406163 68.520748 14.077975 70.0403 13.7679619 71.55985 13.457948 73.09394 13.166484 74.642559 12.893568 76.19116 12.620652 77.75244 12.366613 79.32638 12.131453 80.900318 11.896292 82.48501 11.680291 84.080478 11.483452 85.67594 11.2866129 87.28026 11.109172 88.89341 10.951128 90.50656 10.793084 92.12662 10.654629 93.75358 10.535762 95.38054 10.416895 97.012439 10.3177599 98.64928 10.238356 100.28611 10.158952 101.92592 10.099375 103.568698 10.059625 105.21148 10.019875 106.85525 10 108.5 10 110.14475 10 111.78851 10.019875 113.43129 10.059625 115.074069 10.099375 116.713878 10.158952 118.350719 10.238356 119.98755 10.3177599 121.619449 10.416895 123.24641 10.535762 124.87335 10.654629 126.4934 10.793084 128.10655 10.951128 129.71971 11.109172 131.32402 11.2866129 132.91948 11.483452 134.51496 11.680291 136.09967 11.896292 137.6736 12.131453 139.24753 12.366613 140.8088 12.620651 142.35742 12.893566 143.90602 13.166483 145.44011 13.457948 146.95967 13.7679619 148.47924 14.077975 149.98244 14.406164 151.46927 14.752528 152.95612 15.098893 154.42482 15.4630169 155.87537 15.844897 157.32592 16.226778 158.75656 16.625958 160.16732 17.042433 161.57807 17.45891 162.96723 17.892184 164.3348 18.342253 165.70236 18.792325 167.04668 19.258648 168.36777 19.741227 169.68885 20.223807 170.98509 20.722058 172.25653 21.235983 173.52794 21.749909 174.773 22.278887 175.99167 22.822918 177.21035 23.366951 178.4012 23.925383 179.56421 24.498213 180.72722 25.071043 181.861 25.657582 182.96553 26.25783 184.0701 26.858078 185.1441 27.471312 186.18753 28.09753 187.23094 28.72375 188.24256 29.3622 189.22234 30.012883 190.2021 30.663565 191.14888 31.325694 192.06267 31.999272 192.97646 32.672845 193.85614 33.35706 194.7017 34.05191 195.54729 34.74676 196.35774 35.45141 197.13307 36.16586 197.90839 36.880308 198.64766 37.603696 199.35089 38.33602 200.05413 39.068349 200.72045 39.808729 201.34987 40.557168 201.97928 41.305608 202.57105 42.0612 203.12516 42.823949 203.67925 43.586694 204.19503 44.35568 204.67249 45.1309 205.14994 45.906126 205.58849 46.68665 205.98813 47.472478 206.38777 48.258306 206.74803 49.04849 207.06891 49.843027 207.38979 50.63756 207.6709 51.4355 207.91223 52.236845 208.15358 53.038179 208.35486 53.84195 208.51609 54.648157 208.67729 55.454359 208.79824 56.26202 208.87894 57.07115 208.95964 57.88028 208.99999 58.689897 209 59.5Z" fill="#fcf1f2"/>
<path transform="matrix(1.3052124,-.11419129,.11419129,1.3052124,56.76889,243.50463)" d="M212.5 56.5C212.5 57.318288 212.45986 58.13608 212.37955 58.95338 212.29924 59.770685 212.1789 60.586507 212.01848 61.400857 211.85807 62.215204 211.65779 63.02709 211.41764 63.836519 211.1775 64.64595 210.8978 65.45195 210.57852 66.25451 210.25923 67.05707 209.90077 67.85523 209.50312 68.649 209.10546 69.44277 208.6691 70.23118 208.19403 71.01423 207.71895 71.79727 207.20574 72.57403 206.65439 73.34448 206.10305 74.11494 205.51422 74.87816 204.88794 75.634159 204.26166 76.39016 203.59865 77.138019 202.89893 77.87774 202.1992 78.61746 201.4636 79.34816 200.69213 80.06983 199.92064 80.7915 199.11423 81.50326 198.27288 82.205127 197.43149 82.90699 196.55619 83.598117 195.64696 84.278499 194.73773 84.95888 193.79566 85.62769 192.82074 86.28495 191.84584 86.94221 190.83927 87.58711 189.80104 88.21966 188.7628 88.8522 187.69416 89.471637 186.59511 90.07794 185.49605 90.68425 184.3679 91.27671 183.21067 91.85533 182.05342 92.433948 180.8685 92.99802 179.65589 93.54755 178.44327 94.09707 177.20442 94.63139 175.93933 95.15052 174.67423 95.66963 173.38442 96.17291 172.0699 96.66036 170.7554 97.14781 169.41776 97.61885 168.05699 98.07346 166.69623 98.528079 165.31398 98.96572 163.91025 99.386409 162.50652 99.8071 161.083 100.21031 159.63967 100.596057 158.19632 100.98179 156.73494 101.34959 155.2555 101.699459 153.77605 102.04932 152.28032 102.38081 150.76833 102.69396 149.25632 103.0071 147.72988 103.30151 146.18897 103.57719 144.64807 103.85286 143.09458 104.10947 141.52848 104.34701 139.96236 104.58455 138.38555 104.80273 136.798 105.00155 135.21047 105.20038 133.61414 105.37961 132.00902 105.53925 130.4039 105.6989 128.7919 105.83875 127.17304 105.958827 125.554187 106.07889 123.930408 106.17903 122.30171 106.25924 120.67301 106.33944 119.04137 106.39961 117.40677 106.439769 115.77216 106.47992 114.13657 106.49999 112.5 106.5 110.86343 106.49999 109.227848 106.47991 107.59324 106.43976 105.95863 106.399608 104.32698 106.33943 102.69829 106.25923 101.069599 106.17902 99.445819 106.07888 97.82695 105.95882 96.208087 105.83875 94.59609 105.6989 92.99097 105.53925 91.38583 105.37961 89.789508 105.20038 88.20197 105.00155 86.61445 104.80273 85.037639 104.58455 83.471538 104.34701 81.90543 104.10947 80.35193 103.85286 78.81102 103.57719 77.27011 103.30151 75.74366 103.0071 74.23166 102.69396 72.71966 102.38081 71.22394 102.04931 69.74449 101.69945 68.265048 101.34959 66.80366 100.98178 65.36033 100.59605 63.916997 100.210308 62.49346 99.80709 61.089727 99.386409 59.68599 98.96572 58.303739 98.528079 56.942975 98.07346 55.582216 97.61885 54.244577 97.14781 52.930067 96.66036 51.61556 96.17291 50.32576 95.669628 49.060674 95.15051 47.79558 94.63139 46.556726 94.09707 45.344106 93.54755 44.131479 92.99802 42.946554 92.433948 41.78932 91.85533 40.632089 91.27671 39.503946 90.68425 38.40489 90.07794 37.305833 89.471637 36.23719 88.8522 35.198957 88.21966 34.16072 87.58711 33.154153 86.94221 32.179246 86.28495 31.20434 85.62769 30.26227 84.95888 29.353039 84.278499 28.443808 83.598117 27.568509 82.90699 26.72714 82.205127 25.885773 81.50326 25.079352 80.7915 24.307875 80.06983 23.536396 79.34816 22.800795 78.61746 22.101069 77.87774 21.40134 77.138019 20.738333 76.39016 20.112044 75.634159 19.485754 74.87816 18.896937 74.11494 18.34559 73.34448 17.794245 72.57403 17.281037 71.79727 16.805966 71.01423 16.330893 70.23118 15.894527 69.44277 15.496872 68.649 15.099217 67.85523 14.740749 67.05707 14.42147 66.25451 14.10219 65.45195 13.822483 64.64595 13.582347 63.836519 13.342213 63.02709 13.141939 62.215204 12.981527 61.400857 12.821115 60.586507 12.700757 59.770685 12.620455 58.95338 12.540152 58.13608 12.5 57.318288 12.5 56.5 12.5 55.681715 12.540152 54.86392 12.620455 54.04662 12.700757 53.229314 12.821115 52.413488 12.981527 51.599145 13.141939 50.784795 13.342213 49.972906 13.582348 49.163476 13.822484 48.354047 14.102191 47.548048 14.421471 46.745485 14.74075 45.94292 15.099218 45.144758 15.496873 44.35099 15.894527 43.557229 16.330893 42.76882 16.805966 41.985769 17.281037 41.202714 17.794245 40.42596 18.345593 39.65551 18.896937 38.88505 19.485754 38.121828 20.112044 37.365827 20.738333 36.609827 21.40134 35.861967 22.101067 35.122247 22.800795 34.382524 23.536396 33.65183 24.307873 32.93016 25.079348 32.208498 25.885769 31.496729 26.727137 30.79486 27.568505 30.092993 28.443806 29.401869 29.353037 28.721487 30.26227 28.041106 31.20434 27.372288 32.179246 26.715033 33.154153 26.05778 34.16072 25.41288 35.198957 24.780337 36.23719 24.14779 37.305833 23.528363 38.40489 22.922053 39.503946 22.31574 40.632089 21.723277 41.78932 21.14466 42.946554 20.566044 44.131479 20.001973 45.344106 19.452445 46.556726 18.902916 47.79558 18.368594 49.060674 17.849478 50.32576 17.330363 51.61556 16.827078 52.93007 16.339625 54.24458 15.85217 55.582216 15.381135 56.942975 14.926518 58.303739 14.471902 59.685987 14.034252 61.08972 13.613569 62.49346 13.192885 63.916997 12.789675 65.36033 12.403937 66.80366 12.0182 68.265048 11.650399 69.74449 11.300535 71.22394 10.950672 72.71966 10.619168 74.23166 10.306023 75.74366 9.992878 77.27011 9.698469 78.81102 9.422796 80.35193 9.147124 81.90543 8.89052 83.471538 8.652984 85.037639 8.415447 86.61445 8.197265 88.20198 7.998437 89.789508 7.7996098 91.38583 7.6203758 92.99096 7.460736 94.596088 7.301096 96.208087 7.161242 97.82695 7.041175 99.445819 6.921107 101.069599 6.82097 102.69829 6.740764 104.32698 6.6605579 105.958629 6.600379 107.59323 6.560227 109.22784 6.520076 110.86343 6.5 112.5 6.5 114.13657 6.5 115.77216 6.520076 117.40677 6.560227 119.04137 6.600379 120.67301 6.6605579 122.30171 6.7407639 123.930408 6.82097 125.554187 6.921107 127.17304 7.0411746 128.7919 7.161242 130.4039 7.301096 132.00902 7.460736 133.61414 7.6203758 135.21047 7.7996098 136.798 7.998437 138.38555 8.197264 139.96236 8.415446 141.52846 8.652983 143.09456 8.890519 144.64806 9.147123 146.18897 9.422796 147.72988 9.698469 149.25632 9.992878 150.76833 10.306023 152.28032 10.619168 153.77605 10.950672 155.2555 11.300535 156.73494 11.650399 158.19634 12.0182 159.63968 12.403937 161.083 12.789675 162.50652 13.192885 163.91025 13.613569 165.31398 14.034252 166.69623 14.471902 168.05699 14.926518 169.41776 15.381135 170.7554 15.85217 172.0699 16.339623 173.38442 16.827078 174.67423 17.330363 175.93933 17.849478 177.20442 18.368594 178.44327 18.902916 179.6559 19.452445 180.8685 20.001973 182.05342 20.566044 183.21067 21.14466 184.3679 21.723277 185.49605 22.31574 186.59511 22.922055 187.69416 23.528365 188.7628 24.147793 189.80104 24.780339 190.83927 25.412882 191.84584 26.05778 192.82074 26.715035 193.79564 27.372288 194.73772 28.041106 195.64694 28.721487 196.55617 29.401869 197.43148 30.092993 198.27286 30.79486 199.11421 31.496729 199.92063 32.208498 200.69211 32.93016 201.46358 33.65183 202.19918 34.382524 202.8989 35.122247 203.59862 35.861967 204.26163 36.609827 204.88793 37.365827 205.51422 38.121828 206.10303 38.88505 206.65438 39.655508 207.20572 40.42596 207.71894 41.202714 208.19402 41.985769 208.6691 42.76882 209.10547 43.557229 209.50313 44.35099 209.90077 45.144754 210.25923 45.942918 210.57852 46.74548 210.8978 47.548044 211.1775 48.354043 211.41765 49.163476 211.65779 49.972906 211.85807 50.784795 212.01848 51.599145 212.1789 52.413488 212.29924 53.229314 212.37955 54.046617 212.45986 54.86392 212.5 55.681715 212.5 56.5Z" fill="#f8e2e6"/>
<use data-text="I" xlink:href="#font_7_23" transform="matrix(80.06133,0,0,-78.6075,109.75876,331.91017)" fill="#ffffff"/>
<use data-text="d" xlink:href="#font_7_70" transform="matrix(80.06133,0,0,-78.6075,132.09307,331.91017)" fill="#ffffff"/>
<use data-text="m" xlink:href="#font_7_91" transform="matrix(80.06133,0,0,-78.6075,185.88756,331.91017)" fill="#ffffff"/>
<use data-text="a" xlink:href="#font_7_59" transform="matrix(80.06133,0,0,-78.6075,259.85496,331.91017)" fill="#ffffff"/>
<use data-text="P" xlink:href="#font_8_42" transform="matrix(26.566229,0,0,-25.545002,142.52457,355.88673)" fill="#ffffff"/>
<use data-text="H" xlink:href="#font_8_22" transform="matrix(26.566229,0,0,-25.545002,159.67975,355.88673)" fill="#ffffff"/>
<use data-text="A" xlink:href="#font_8_1" transform="matrix(26.566229,0,0,-25.545002,179.17186,355.88673)" fill="#ffffff"/>
<use data-text="R" xlink:href="#font_8_45" transform="matrix(26.566229,0,0,-25.545002,197.5486,355.88673)" fill="#ffffff"/>
<use data-text="M" xlink:href="#font_8_31" transform="matrix(26.566229,0,0,-25.545002,214.91623,355.88673)" fill="#ffffff"/>
<use data-text="A" xlink:href="#font_8_1" transform="matrix(26.566229,0,0,-25.545002,238.12618,355.88673)" fill="#ffffff"/>
</g>
<g clip-path="url(#clip_9)">
<path transform="matrix(.9210937,0,0,.9210937,25.5,111.75)" stroke-width="3.4" stroke-linecap="square" stroke-miterlimit="4" stroke-linejoin="miter" fill="none" stroke="#c8102e" d="M9 34V5H19C19.492457 5 19.980183 5.0480368 20.463175 5.14411 20.94617 5.2401835 21.415156 5.3824479 21.870125 5.570903 22.325097 5.759358 22.757313 5.9903829 23.166775 6.263977 23.576239 6.5375716 23.95508 6.848479 24.3033 7.1966989 24.65152 7.544918 24.962428 7.9237596 25.236023 8.333222 25.509617 8.742685 25.74064 9.174903 25.929097 9.629874 26.117552 10.084846 26.259816 10.553828 26.35589 11.036822 26.451966 11.519817 26.500002 12.007544 26.500002 12.500001 26.500002 12.992457 26.451966 13.480183 26.35589 13.963177 26.259816 14.446171 26.117552 14.9151539 25.929097 15.370124 25.74064 15.825094 25.509617 16.25731 25.236021 16.666775 24.962428 17.076237 24.65152 17.455079 24.3033 17.803299 23.95508 18.151518 23.576239 18.462424 23.166775 18.73602 22.757313 19.009613 22.325097 19.240637 21.870125 19.429093 21.415156 19.617548 20.94617 19.759812 20.463175 19.855887 19.980183 19.951962 19.492457 19.999999 19 20H9"/>
<path transform="matrix(.9210937,0,0,.9210937,25.5,111.75)" stroke-width="3.4" stroke-linecap="square" stroke-miterlimit="4" stroke-linejoin="miter" fill="none" stroke="#c8102e" d="M17 20 33 36"/>
<path transform="matrix(.9210937,0,0,.9210937,25.5,111.75)" stroke-width="3.4" stroke-linecap="square" stroke-miterlimit="4" stroke-linejoin="miter" fill="none" stroke="#c8102e" d="M23 36 33 26"/>
</g>
<g clip-path="url(#clip_10)">
<path transform="matrix(.75,0,0,.75,0,-2382)" d="M34 3922H525V3923H34Z" fill="#c8102e"/>
<use data-text="M" xlink:href="#font_11_31" transform="matrix(9.997499,0,0,-9.997499,25.511719,576)" fill="#c8102e"/>
<use data-text="i" xlink:href="#font_11_80" transform="matrix(9.997499,0,0,-9.997499,34.728128,576)" fill="#c8102e"/>
<use data-text="t" xlink:href="#font_11_108" transform="matrix(9.997499,0,0,-9.997499,37.4271,576)" fill="#c8102e"/>
<use data-text="t" xlink:href="#font_11_108" transform="matrix(9.997499,0,0,-9.997499,41.735437,576)" fill="#c8102e"/>
<use data-text="h" xlink:href="#font_11_79" transform="matrix(9.997499,0,0,-9.997499,46.04377,576)" fill="#c8102e"/>
<use data-text="u" xlink:href="#font_11_109" transform="matrix(9.997499,0,0,-9.997499,52.13141,576)" fill="#c8102e"/>
<use data-text=" " xlink:href="#font_11_178" transform="matrix(9.997499,0,0,-9.997499,58.219049,576)" fill="#c8102e"/>
<use data-text="R" xlink:href="#font_11_45" transform="matrix(9.997499,0,0,-9.997499,60.118333,576)" fill="#c8102e"/>
<use data-text="a" xlink:href="#font_11_59" transform="matrix(9.997499,0,0,-9.997499,66.885707,576)" fill="#c8102e"/>
<use data-text="n" xlink:href="#font_11_92" transform="matrix(9.997499,0,0,-9.997499,72.8134,576)" fill="#c8102e"/>
<use data-text="g" xlink:href="#font_11_78" transform="matrix(9.997499,0,0,-9.997499,78.90104,576)" fill="#c8102e"/>
<use data-text="e" xlink:href="#font_11_72" transform="matrix(9.997499,0,0,-9.997499,85.478488,576)" fill="#c8102e"/>
<use data-text="&#x201c;" xlink:href="#font_12_212" transform="matrix(9.997499,0,0,-9.997499,96.22266,576)" fill="#c8102e"/>
<use data-text="C" xlink:href="#font_12_11" transform="matrix(9.997499,0,0,-9.997499,100.990818,576)" fill="#c8102e"/>
<use data-text="r" xlink:href="#font_12_105" transform="matrix(9.997499,0,0,-9.997499,109.02768,576)" fill="#c8102e"/>
<use data-text="e" xlink:href="#font_12_72" transform="matrix(9.997499,0,0,-9.997499,112.6263,576)" fill="#c8102e"/>
<use data-text="a" xlink:href="#font_12_59" transform="matrix(9.997499,0,0,-9.997499,118.81389,576)" fill="#c8102e"/>
<use data-text="t" xlink:href="#font_12_108" transform="matrix(9.997499,0,0,-9.997499,124.50166,576)" fill="#c8102e"/>
<use data-text="e" xlink:href="#font_12_72" transform="matrix(9.997499,0,0,-9.997499,128.42014,576)" fill="#c8102e"/>
<use data-text=" " xlink:href="#font_12_178" transform="matrix(9.997499,0,0,-9.997499,134.6777,576)" fill="#c8102e"/>
<use data-text="W" xlink:href="#font_12_54" transform="matrix(9.997499,0,0,-9.997499,136.50702,576)" fill="#c8102e"/>
<use data-text="i" xlink:href="#font_12_80" transform="matrix(9.997499,0,0,-9.997499,146.56308,576)" fill="#c8102e"/>
<use data-text="t" xlink:href="#font_12_108" transform="matrix(9.997499,0,0,-9.997499,149.05214,576)" fill="#c8102e"/>
<use data-text="h" xlink:href="#font_12_79" transform="matrix(9.997499,0,0,-9.997499,153.14057,576)" fill="#c8102e"/>
<use data-text=" " xlink:href="#font_12_178" transform="matrix(9.997499,0,0,-9.997499,159.03829,576)" fill="#c8102e"/>
<use data-text="C" xlink:href="#font_12_11" transform="matrix(9.997499,0,0,-9.997499,160.8676,576)" fill="#c8102e"/>
<use data-text="a" xlink:href="#font_12_59" transform="matrix(9.997499,0,0,-9.997499,168.80449,576)" fill="#c8102e"/>
<use data-text="r" xlink:href="#font_12_105" transform="matrix(9.997499,0,0,-9.997499,174.66222,576)" fill="#c8102e"/>
<use data-text="e" xlink:href="#font_12_72" transform="matrix(9.997499,0,0,-9.997499,178.26084,576)" fill="#c8102e"/>
<use data-text="&#x201d;" xlink:href="#font_12_213" transform="matrix(9.997499,0,0,-9.997499,184.5184,576)" fill="#c8102e"/>
<use data-text="I" xlink:href="#font_13_23" transform="matrix(6.795,0,0,-6.795,350.42579,576)"/>
<use data-text="D" xlink:href="#font_13_13" transform="matrix(6.795,0,0,-6.795,352.27134,576)"/>
<use data-text="M" xlink:href="#font_13_31" transform="matrix(6.795,0,0,-6.795,357.29908,576)"/>
<use data-text="A" xlink:href="#font_13_1" transform="matrix(6.795,0,0,-6.795,363.22926,576)"/>
<use data-text=" " xlink:href="#font_13_178" transform="matrix(6.795,0,0,-6.795,367.92454,576)"/>
<use data-text="P" xlink:href="#font_13_42" transform="matrix(6.795,0,0,-6.795,369.11195,576)"/>
<use data-text="h" xlink:href="#font_13_79" transform="matrix(6.795,0,0,-6.795,373.49513,576)"/>
<use data-text="a" xlink:href="#font_13_59" transform="matrix(6.795,0,0,-6.795,377.47117,576)"/>
<use data-text="r" xlink:href="#font_13_105" transform="matrix(6.795,0,0,-6.795,381.39295,576)"/>
<use data-text="m" xlink:href="#font_13_91" transform="matrix(6.795,0,0,-6.795,383.84916,576)"/>
<use data-text="a" xlink:href="#font_13_59" transform="matrix(6.795,0,0,-6.795,390.08467,576)"/>
</g>
</svg>
